<?xml version="1.0" encoding="UTF-8"?>
<svg width="177px" height="53px" viewBox="0 0 177 53" version="1.1" xmlns="http://www.w3.org/2000/svg" xmlns:xlink="http://www.w3.org/1999/xlink">
    <title>Vrbo_UK_logo_1_left_mobile</title>
    <g id="Vrbo_UK_logo_1_left_mobile" stroke="none" stroke-width="1" fill="none" fill-rule="evenodd">
        <g id="Vrbo-Logo_Wordmark_White" fill="#FFFFFF" fill-rule="nonzero">
            <path d="M96.5510386,15.0227788 C99.8352918,15.4722952 102.056503,17.890687 101.609747,22.6544113 C100.512938,34.3485258 90.2605705,46.3187848 75.0744467,45.9935171 L74.6127552,45.9798842 L74.6525047,45.896678 C89.5296599,45.9342221 98.8266077,33.5882478 99.8563559,22.6128082 C100.259965,18.3060415 98.2690969,16.1169742 95.3561776,15.7185315 C91.0665525,15.1313785 85.8641759,17.7174519 82.7343718,22.0934694 L82.6319464,22.2383803 L82.5769084,22.164983 C85.8669376,17.1952725 91.7179166,14.361188 96.5510386,15.0227788 Z M127.074109,14.8713503 C137.155854,15.4554849 140.068433,22.7495573 139.998787,26.7238374 C139.810772,37.4331457 131.406862,44.9331474 117.011851,45.9281518 L116.573807,45.9563088 L116.605403,45.8913677 C130.01047,44.8834224 138.27835,36.2966099 138.464187,25.6722598 C138.528092,22.0417701 136.016746,15.8099553 127.307318,14.962678 L127.041495,14.9386594 L127.074109,14.8713503 Z M73.8178688,3.25518908 C75.3274254,5.21510805 73.4629637,9.16337535 72.4134878,11.8219537 L72.3702423,11.9319727 L64.0643122,33.3017614 C63.5051023,34.7240464 62.8551823,36.3120672 62.7033189,38.0431622 C62.3521789,42.045675 65.9012081,45.5058444 72.9320833,45.8700189 L73.1462054,45.8801041 L73.1149495,45.9450456 C64.9513698,45.6977946 61.0148179,41.715397 61.40212,37.3010709 C61.5528651,35.583111 62.0889508,34.1664693 62.6207593,32.8543698 L62.6900691,32.6838031 L70.9633847,11.4824563 C72.0417152,8.54049361 73.5013125,5.64355486 72.0073013,3.84057992 L71.9404732,3.76288223 L71.9404732,3.64788179 L73.8178688,3.25518908 Z M125.599746,14.7883132 L125.56849,14.8529164 C113.022961,15.8578173 103.883312,24.5085567 103.698154,35.073039 C103.634586,38.704533 106.204206,45.0566946 114.865023,45.7901991 L115.12934,45.8106982 L115.099104,45.8746247 C105.007847,45.2935344 102.093908,37.9351968 102.163555,33.9599022 C102.352449,23.200934 111.550873,15.6569048 125.599746,14.7883132 Z M94.0934711,16.4707359 C96.758381,16.8353549 98.4580935,18.7863037 98.1030664,22.5715095 C97.1458393,32.7738485 87.9477433,45.4415952 75.1017654,45.7677728 L74.7113813,45.7738641 L74.7433169,45.7068931 C86.4738128,44.9871257 95.5244501,31.9951196 96.4115077,22.5380241 C96.7233877,19.2101141 95.1911667,17.4800339 92.8986101,17.1664886 C89.5956447,16.7144639 85.4996711,18.8583055 82.9019759,22.3227907 L82.8002189,22.4602297 L82.744162,22.3861559 C85.5762233,18.279287 90.2520461,15.9451162 94.0934711,16.4707359 Z M126.982822,15.061304 C134.729202,15.6863652 137.113488,21.2040189 137.055053,24.5593261 C136.873429,34.8932628 128.928426,44.6825354 117.026162,45.7391161 L116.66428,45.7684523 L116.696555,45.7008049 C127.422783,44.6045802 135.402564,33.7492146 135.582286,23.5080867 C135.635092,20.4917197 133.408997,15.8907555 127.142363,15.148564 L126.951226,15.1272601 L126.982822,15.061304 Z M77.727785,2.46926251 C78.9991227,4.1772461 76.6879413,9.22792204 75.8530871,11.3807872 L75.8204922,11.4653415 L66.8180976,34.4765925 C66.2633044,35.8369799 65.4526881,37.8576057 65.3008247,39.5883621 C65.014262,42.8568745 67.8500325,45.3519838 73.0749989,45.6874131 L73.234062,45.6969152 L73.2031457,45.7611802 C66.886385,45.5223851 63.6768742,42.5195207 63.9989464,38.8469476 C64.1499535,37.1253503 64.8272867,35.4221445 65.375985,34.0308944 L65.4438549,33.8586342 L74.1574715,11.4940916 C75.0904617,9.18926523 77.0074837,5.05817678 75.7383972,3.08051324 L75.6811993,2.9958969 L75.6811993,2.88055822 L77.727785,2.46926251 Z M125.509375,14.9761698 L125.4771,15.0431406 C115.053239,16.1342919 106.817974,27.1780553 106.64165,37.2378882 C106.588844,40.2569342 108.464313,44.923895 115.01963,45.6034087 L115.219711,45.622774 L115.187776,45.6890681 C107.432901,45.1817132 105.049295,39.4807353 105.108409,36.1244136 C105.28949,25.8065059 113.833577,15.8593056 125.509375,14.9761698 Z M81.7579684,1.6508314 C82.4099532,3.52768464 79.7408417,9.60883414 79.2036094,11.0133131 L79.1837688,11.0656473 L69.5712037,35.6513895 C69.0116542,37.0733364 68.1116864,39.4034482 67.9594837,41.1342049 C67.8004861,42.9461385 68.716761,44.2314377 70.5734328,44.9024989 C71.7869572,45.3411153 72.8490311,45.4952752 73.2679223,45.5390983 L73.3076495,45.5431193 L73.2801305,45.6006193 C68.764664,45.2830153 66.3443661,43.2661105 66.6018881,40.3305548 C66.7432661,38.7189158 67.5769776,36.6065609 68.1385566,35.1832394 L68.1976403,35.0334313 L77.5747667,11.00375 C78.2044006,9.41759834 80.7410942,3.79274438 79.8073335,2.22058331 L79.7681193,2.15987749 L79.7681193,2.04453881 L81.7579684,1.6508314 Z M126.891296,15.2522385 C132.302993,15.8559909 134.096813,19.6608144 134.04891,22.3944427 C133.874685,32.3493243 126.394926,44.3532427 117.039597,45.5453912 L116.755533,45.5781943 L116.788148,45.5105469 C124.964638,44.4210869 132.403556,31.1963738 132.575803,21.342865 C132.618118,18.946587 131.151946,16.0297624 127.004123,15.3432627 L126.858341,15.3202241 L126.891296,15.2522385 Z M91.6978718,17.9275548 C93.6180749,18.1903646 94.9209725,19.6901057 94.6576749,22.4961166 C93.864246,30.9548695 85.9301071,43.9927106 75.1459576,45.5086071 L74.8182972,45.5510001 L74.8495532,45.4860586 C84.7549732,43.426874 92.1830186,30.1500727 92.9107389,22.3892338 C93.1251138,20.1054603 92.1137122,18.8434995 90.4408389,18.6148515 C88.1240898,18.2977111 85.2035396,19.8812074 83.0718054,22.5490557 L82.9676081,22.681132 L82.9112115,22.6073964 C85.1504288,19.4770167 88.7852925,17.5287738 91.6978718,17.9275548 Z M2.79804473,6.37349399 C3.87926257,7.15247896 5.12202288,8.15187533 6.30498023,13.4611924 L6.34353345,13.6358551 L13.2783235,45.5086453 L11.7092721,45.5086453 C11.7092721,45.5086453 4.83121539,13.9286868 4.82164593,13.8852037 C3.82840695,9.43814526 2.59204305,7.49334183 0.102997351,6.48213168 L0,6.44109667 L0,6.37349399 L2.79804473,6.37349399 Z M8.02946905,6.37349399 C8.24685376,7.95326932 8.40890606,9.08711882 9.35470074,13.068682 L9.3996121,13.2574161 L16.4157426,45.5079658 L14.847033,45.5079658 L7.85209206,13.3569517 C6.94220871,9.63714143 6.60072881,7.90560922 5.47007091,6.51403254 L5.40982657,6.44109667 L5.40982657,6.37349399 L8.02946905,6.37349399 Z M125.418359,15.1653794 L125.385744,15.2340414 C117.510603,16.3163985 109.75369,29.7917449 109.58518,39.4023996 C109.543195,41.800332 111.009432,44.8359782 115.166712,45.4141985 L115.311135,45.4331583 L115.2775,45.5028351 C109.916425,45.0678628 108.066208,41.0232296 108.114451,38.2892632 C108.286359,28.4766809 116.172712,16.1405155 125.418359,15.1653794 Z M37.7552234,19.569017 C38.6252939,19.569017 39.1481518,20.0635189 39.1974139,20.9909637 C39.2779488,22.511365 37.2929895,27.0223923 36.3388051,29.3470367 L36.2919691,29.461423 L29.8111147,45.4745586 L28.1966766,45.4745586 L34.7322288,29.3379666 C35.6148698,27.2358261 37.7786654,22.3513513 37.7100383,21.052861 C37.6774234,20.4345645 37.3533125,20.1873135 36.8566146,20.1873135 C35.6826729,20.1873135 33.6630729,23.0614628 32.3245218,25.9875849 L32.2650469,26.1186306 L32.1838493,26.1186306 C33.5105288,22.7809118 35.7164518,19.569017 37.7552234,19.569017 Z M39.4945152,18.3943889 C41.1089535,18.3943889 42.0306644,19.3833928 42.1060864,20.8056777 C42.2184579,22.9293087 40.4578508,26.9593437 39.4039149,29.5043936 L39.3450305,29.6468443 L33.0405004,45.4746263 L31.4257226,45.4746263 L37.8474624,29.5230497 C38.7759681,27.1120992 40.7196129,22.7840236 40.6183708,20.8672367 C40.5561986,19.6928792 39.8373115,19.0123472 38.5955668,19.0123472 C35.7956939,19.0123472 33.4662231,22.4859891 32.0809899,25.988952 L32.0301176,26.1186983 L31.9512983,26.1186983 C33.2657471,22.1471241 35.9809383,18.3943889 39.4945152,18.3943889 Z M42.9682749,15.9828972 C46.0734861,15.9828972 47.7929034,17.9612431 47.9271003,20.4966647 C48.0965166,23.7003517 46.8348335,26.7860082 45.6001023,29.869358 L45.5159752,30.0795842 L39.5610362,45.4744233 L37.9465983,45.4744233 L44.0187468,29.9557896 C45.1619674,26.9262043 46.600081,23.5878091 46.4397244,20.5582238 C46.3187776,18.2707296 44.802524,16.6011937 42.0693264,16.6011937 C36.3676695,16.6011937 33.0920892,21.038066 31.6307585,25.9689281 L31.5870305,26.1184953 L31.5102495,26.1184953 C32.8151857,20.7520334 36.5213946,15.9828972 42.9682749,15.9828972 Z M41.2295607,17.1578297 C43.5897251,17.1578297 44.9106288,18.6416737 45.0152684,20.6203579 C45.1595095,23.3418757 43.6199132,26.832806 42.5316152,29.6454076 L42.4597542,29.8318936 L36.3318885,45.4743219 L34.6549383,45.4743219 L40.9034115,29.7706727 C42.0017864,27.0498975 43.6586918,23.155103 43.5309501,20.743476 C43.4395603,19.012381 42.3180834,17.7761262 40.3309518,17.7761262 C36.1749756,17.7761262 33.2813069,21.7397002 31.8497233,25.9828826 L31.8045312,26.1183938 L31.7325066,26.1183938 C33.0751537,21.5089054 36.1643973,17.1578297 41.2295607,17.1578297 Z M59.8122112,14.8084383 C61.8615145,14.8084383 63.54458,16.1065904 63.695084,18.9508219 C64.0028362,24.7655658 58.7138969,29.4899875 52.928581,30.4237343 L52.7531217,30.4508665 L52.6878918,30.3889692 C57.6586078,29.2758326 62.577344,24.8243006 62.2994379,19.5691185 C62.1682986,17.0959324 60.6788844,15.9212367 58.8772505,15.9212367 C55.538639,15.9212367 52.6413478,18.722174 50.8047206,22.4234972 C50.7904515,22.6122332 50.7850156,22.8080722 50.7646315,22.9924111 C52.4283315,19.5681038 55.0008325,16.9724761 57.8773996,16.9724761 C59.4918376,16.9724761 60.7274671,18.0233772 60.8422986,20.1870768 C61.0817739,24.7169849 56.8107308,29.1252305 52.6814932,30.2329589 L52.5564129,30.2655129 L52.491523,30.2032773 C55.9041976,28.9670226 59.6559315,24.7627415 59.4463125,20.8057115 C59.3515257,19.012381 58.3088678,18.0849362 56.942439,18.0849362 C54.4443406,18.0849362 52.1830403,20.5909313 50.6501393,23.75987 C50.6120888,23.9952827 50.5747176,24.2320483 50.5271542,24.461711 C51.893583,21.5112731 53.8905667,19.1361756 55.9419084,19.1361756 C57.1843328,19.1361756 57.9721867,19.9398258 58.0506664,21.424008 C58.2252762,24.7239191 55.2230956,28.7484332 52.4582037,30.0352095 L52.3607234,30.0794827 L52.2958335,30.0179237 C54.338342,28.7194333 56.7990691,24.7627415 56.65502,22.0419663 C56.5959054,20.9295061 56.001023,20.2493123 55.0079671,20.2493123 C53.3452861,20.2493123 51.6007281,22.5696154 50.3365606,25.2947877 C50.2254661,25.7300982 50.1031603,26.1623646 49.9652264,26.5942928 C51.1539718,23.8701351 52.7493844,21.3002134 54.0074366,21.3002134 C54.8149956,21.3002134 55.1543945,21.8566126 55.1972013,22.6602628 C55.3030732,24.6659256 53.7036525,28.4641332 52.2402566,29.825888 L52.1646942,29.8941291 L52.0991247,29.8318936 C53.3717857,27.5660465 53.9663284,24.9237422 53.8358688,23.3127212 C53.8012152,22.8804549 53.6316857,22.4130119 53.0731556,22.4130119 C52.3399884,22.4130119 50.9520688,24.8057745 49.7874868,27.1785381 L49.7294478,27.2971484 L49.7260505,27.2971484 C49.4343281,28.142289 49.108783,29.0007919 48.7613454,29.9185053 L48.6300535,30.2655129 L42.7909654,45.4743219 L41.1761878,45.4743219 L47.0713325,30.14138 C48.3263271,26.8645438 49.5419118,24.0203122 49.3489403,20.3731069 C49.2018335,17.5907726 47.2863871,15.4267348 43.8088223,15.4267348 C36.6158285,15.4267348 32.8528389,20.3877175 31.4152037,25.9496704 L31.3723496,26.1183938 L31.3071198,26.1183938 C32.6300621,20.1119882 36.6291257,14.8084383 44.7077708,14.8084383 C48.5573495,14.8084383 50.6725623,17.219727 50.8363162,20.3108713 C50.8621362,20.7986085 50.8675722,21.2660515 50.8543223,21.7175974 C52.8336396,17.737229 56.0879962,14.8084383 59.8122112,14.8084383 Z M85.8358176,0.824384076 C86.370882,1.40563173 82.6570172,10.3868454 82.344002,11.227686 L82.3354905,11.2508657 L72.3250911,36.8259501 C71.8385854,38.1244405 70.7028393,41.0106134 70.5618478,42.6179136 C70.4181318,44.2558681 71.6630322,45.0554743 73.2914776,45.367543 L73.3840566,45.3846892 L73.3514417,45.4519983 C70.9022657,45.0748643 69.0788884,43.9495511 69.2606488,41.8764992 C69.4025,40.2591361 70.330603,37.789799 70.897185,36.3442831 L70.9508484,36.2076536 L80.731584,11.1274093 C81.2507623,9.71081723 83.7890027,3.75909024 83.7832359,1.44911679 L83.7814179,1.35237142 L83.7814179,1.23737097 L85.8358176,0.824384076 Z M126.796203,15.4503437 C129.940145,15.9658163 131.14248,18.1244423 131.105448,20.2299652 C130.937614,29.7967508 123.931413,44.105394 117.055937,45.3525369 L116.847637,45.3863127 L116.88195,45.315283 C122.464875,44.2846759 129.404377,28.6280418 129.570169,19.1783876 C129.600846,17.4225825 128.841488,16.1118549 126.872271,15.557042 L126.759511,15.5264469 L126.796203,15.4503437 Z M89.2388776,19.3754442 C90.5407562,19.5533566 91.3224949,20.585993 91.1573816,22.3478675 C90.5213603,29.1263218 83.1175644,42.8786616 75.1717271,45.2485278 L74.9307847,45.3168388 L74.9763098,45.2224708 C81.9504644,42.2314446 88.9028762,28.3130083 89.4654833,22.3143821 C89.5881291,21.0094652 88.9738813,20.1987121 88.0443566,20.0715351 C86.6476569,19.8802759 84.6992094,21.0731702 83.224802,22.796097 L83.1351332,22.9022373 L83.0787366,22.8285017 C84.8610054,20.5609635 87.3190145,19.1126344 89.2388776,19.3754442 Z M125.32595,15.3580051 L125.291297,15.4300495 C119.885376,16.5117302 112.689032,32.4812332 112.529694,41.5666066 C112.498977,43.3306796 113.150431,44.810873 115.289579,45.2193513 L115.403543,45.2398561 L115.369909,45.309533 C112.105021,44.9567522 111.021255,42.5613604 111.057946,40.4538081 C111.22204,31.0934484 118.624605,16.3392295 125.32595,15.3580051 Z M90.0433108,0 L75.0788427,38.0008825 C74.5189535,39.4228294 73.2439142,42.3262523 73.1005447,43.9332143 C73.0449752,44.5566581 73.2635654,45.011134 73.4575044,45.1589986 L73.4837698,45.1772485 L73.4345078,45.2797344 C73.3043878,45.2401606 73.2163956,45.1985576 73.0883142,45.1376749 C72.3894715,44.8034971 71.8554027,43.971097 71.8859789,43.2783884 C71.9564389,41.6975771 73.0885172,38.8950176 73.6595606,37.4931314 L73.7046,37.382586 L83.8821505,11.3129997 C84.0486393,10.8234428 88.0194003,1.09913174 87.9913335,0.430130814 L87.9892508,0.412648659 L90.0433108,0 Z M12.3145411,6.37349399 C11.9052495,7.67829654 11.6736358,9.58014509 12.6428448,13.6833837 L12.688434,13.8743329 L18.5117983,41.1528593 L17.4800044,43.2967813 L10.9464486,13.1578805 C10.1301896,9.59107233 10.0310901,8.1519862 10.062218,6.46416448 L10.0640067,6.37349399 L12.3145411,6.37349399 Z M16.8887479,6.37349399 L16.8887479,6.44109667 C15.4519358,7.71188611 15.07078,9.93494245 15.8955239,14.1709387 L15.9321426,14.3563841 L20.6075123,36.7994511 L19.5634148,38.9685118 L14.2803837,13.9317442 C13.4102454,9.69189482 13.622402,8.04422505 14.3676456,6.44507381 L14.4013691,6.37349399 L16.8887479,6.37349399 Z M23.3515579,6.37349399 L23.3515579,6.44109667 C19.3542535,7.20307047 18.1792592,9.4118773 19.1618388,14.4695082 L22.7073275,32.4378901 L21.6540022,34.6256348 L17.5955216,14.4977042 C16.3251744,8.49907139 18.5893794,6.89970774 19.6594512,6.37349399 L23.3515579,6.37349399 Z M42.7280261,6.37349399 L42.7280261,6.44109667 C36.6546593,8.25618757 33.9353034,11.7330401 29.2757094,20.3887224 L29.1339103,20.6526046 L29.0293296,20.5839828 C33.1270759,11.9262312 35.0900861,8.35697952 38.3240566,6.43134693 L38.4224481,6.37349399 L42.7280261,6.37349399 Z M35.4422417,6.37349399 L35.4422417,6.44109667 C33.8611363,8.80269909 32.8417682,11.2861618 29.0404535,20.2419847 L28.9244072,20.515361 L28.8198266,20.4470789 C31.3015878,13.573106 32.5781045,10.204165 32.2898797,6.59299012 L32.2791901,6.46691474 L32.2805571,6.37349399 L35.4422417,6.37349399 Z M29.8013808,6.37349399 C31.9671536,8.55214119 31.2070015,12.1235251 28.7886925,20.134343 L28.7149042,20.378457 L28.6106653,20.3098353 C30.9124544,11.2575864 30.1764402,7.73266776 26.8042095,6.47841271 L26.7012143,6.44109667 L26.7012143,6.37349399 L29.8013808,6.37349399 Z" id="Logo"></path>
        </g>
    </g>
</svg>