<svg width="160" height="60" fill="none" xmlns="http://www.w3.org/2000/svg"><path d="M77.692.788h5.413a.24.24 0 0 0 .318 0h.557c.398 0 .796.081 1.194.081h4.14c1.273 0 2.547.162 3.74.162.717 0 1.434.08 2.15.161 1.274.08 2.468.162 3.662.324.876.08 1.671.161 2.547.242 1.035.08 2.149.242 3.184.323 1.273.162 2.547.323 3.901.485 1.591.243 3.263.485 4.855.727 2.07.324 4.219.647 6.289 1.051 4.219.808 8.438 1.86 12.577 3.072 3.741 1.13 7.403 2.424 10.985 4.04 2.786 1.294 5.413 2.748 7.96 4.527 1.831 1.293 3.582 2.748 5.095 4.526 1.194 1.454 2.149 2.99 2.865 4.687.399.97.716 1.94.716 2.99 0 0 0 .081.08.081v3.96c-.079 0-.079.082-.079.082 0 .242-.08.484-.08.726a14.62 14.62 0 0 1-2.069 4.85c-1.353 2.101-3.105 3.799-5.016 5.334-2.228 1.779-4.616 3.153-7.084 4.446-3.343 1.697-6.846 3.071-10.348 4.284a111.82 111.82 0 0 1-12.339 3.394l-6.209 1.212-4.537.727-3.343.485c-1.035.162-2.149.243-3.264.405-1.035.08-1.99.242-3.025.323-1.273.162-2.467.242-3.741.323-1.194.08-2.468.162-3.74.242-1.354.081-2.788.163-4.14.243-1.91.08-3.742.08-5.652.08-.318 0-.637 0-.876.082h-10.03c-.08-.082-.16-.082-.319-.082h-2.705c-2.468-.08-5.016-.242-7.483-.403-1.592-.081-3.184-.243-4.777-.404-1.91-.162-3.9-.404-5.81-.647-1.91-.243-3.742-.485-5.652-.808-2.72-.407-5.427-.892-8.12-1.455-3.502-.727-7.005-1.535-10.428-2.586-3.661-1.131-7.323-2.344-10.905-3.96-3.104-1.375-6.129-2.991-8.915-5.011a25.175 25.175 0 0 1-5.254-4.85c-1.353-1.697-2.388-3.557-2.945-5.658-.24-.889-.398-1.778-.318-2.667.159-.08.079-.161.079-.242v-1.456c.08-.161.08-.323.08-.485 0-.323 0-.646.079-.97.08-.889.398-1.778.717-2.586.955-2.424 2.467-4.445 4.219-6.223 1.99-1.94 4.219-3.556 6.607-4.93 4.059-2.343 8.278-4.122 12.736-5.658a110.92 110.92 0 0 1 10.11-2.91 136.57 136.57 0 0 1 8.278-1.697l4.298-.727 3.582-.485c1.036-.162 1.99-.242 3.025-.404 1.036-.162 2.07-.243 3.105-.323 1.035-.081 2.07-.162 3.025-.243 1.114-.08 2.229-.161 3.263-.242l3.343-.243c1.912-.08 3.742-.161 5.652-.242 1.513 0 3.105 0 4.618-.08.079.08.159.08.159 0Zm4.457 57.141h2.946c2.388-.08 4.855-.162 7.243-.323 1.752-.081 3.582-.163 5.334-.323l3.104-.243c1.274-.162 2.468-.242 3.741-.404 1.274-.162 2.627-.323 3.901-.485 1.91-.243 3.821-.566 5.731-.809a170.32 170.32 0 0 0 6.289-1.13c3.741-.809 7.402-1.698 10.985-2.749 2.945-.89 5.891-1.94 8.756-3.07 3.662-1.456 7.164-3.234 10.348-5.577a23.546 23.546 0 0 0 5.254-4.93c1.592-2.103 2.707-4.446 2.787-7.194.079-1.132 0-2.343-.32-3.476-.477-1.939-1.353-3.556-2.546-5.091-1.513-1.94-3.264-3.475-5.175-4.849a50.293 50.293 0 0 0-8.119-4.607c-4.299-1.859-8.677-3.476-13.214-4.607-2.547-.646-5.095-1.293-7.642-1.859-1.99-.404-3.98-.808-5.971-1.131-1.511-.243-2.944-.486-4.457-.728-1.114-.162-2.308-.323-3.422-.485-1.194-.162-2.309-.242-3.503-.404-1.114-.08-2.228-.242-3.263-.323-1.275-.162-2.628-.242-3.901-.324-1.035-.08-2.15-.161-3.184-.242-1.99-.162-3.98-.242-5.97-.324-1.752-.08-3.503-.08-5.255-.08h-7.322c-1.752.162-3.504.242-5.254.323-.478 0-1.035 0-1.513.08l-3.82.244c-1.115.08-2.31.162-3.423.242-1.274.162-2.628.242-3.901.404-1.194.162-2.388.243-3.662.404-1.99.242-3.9.485-5.89.808-2.23.405-4.458.727-6.687 1.213-3.125.633-6.23 1.36-9.313 2.182-3.105.89-6.209 1.779-9.234 2.91-3.423 1.293-6.846 2.909-9.95 4.768-2.23 1.374-4.3 2.91-6.13 4.85-1.353 1.453-2.547 3.07-3.343 5.01-.876 2.183-1.114 4.365-.716 6.627.318 1.779 1.034 3.395 2.07 4.85 1.273 1.94 2.865 3.556 4.696 4.93 2.229 1.697 4.617 3.071 7.084 4.365 3.343 1.697 6.847 3.07 10.428 4.203 2.15.726 4.379 1.292 6.527 1.858a115.59 115.59 0 0 0 7.165 1.698c1.671.323 3.343.646 4.935.97 1.751.323 3.582.565 5.334.807 1.194.163 2.308.324 3.503.485 1.431.163 2.864.324 4.298.485 1.273.081 2.467.243 3.74.323 1.672.163 3.424.243 5.095.324.955.08 1.91.08 2.946.162 1.512.08 3.104.162 4.696.242h7.164Z" fill="#1D1F4D"/><path d="M82.15 57.929h-7.245c-1.591 0-3.104-.08-4.696-.243-.955-.08-1.91-.08-2.945-.161-1.672-.08-3.423-.162-5.095-.324-1.274-.08-2.467-.242-3.741-.323-1.433-.161-2.866-.242-4.298-.485-1.194-.161-2.31-.323-3.504-.485-1.83-.242-3.581-.484-5.332-.808a551.84 551.84 0 0 1-4.935-.97 114.992 114.992 0 0 1-7.165-1.697c-2.149-.566-4.379-1.132-6.527-1.858-3.582-1.213-7.085-2.506-10.428-4.203-2.467-1.294-4.856-2.668-7.084-4.365-1.831-1.373-3.424-2.99-4.697-4.93-1.036-1.455-1.751-3.071-2.07-4.85-.398-2.262-.16-4.526.716-6.627.797-1.859 1.912-3.475 3.343-5.01 1.832-1.94 3.902-3.476 6.13-4.85 3.184-1.94 6.527-3.475 9.95-4.768a94.104 94.104 0 0 1 9.234-2.91c3.058-.813 6.137-1.54 9.234-2.182 2.229-.485 4.458-.808 6.687-1.213 1.91-.323 3.9-.566 5.89-.808 1.194-.162 2.388-.242 3.662-.404 1.274-.162 2.627-.242 3.9-.404 1.114-.08 2.309-.162 3.424-.243l3.82-.242c.478 0 1.035-.08 1.513-.08 1.751-.082 3.503-.163 5.333-.244 2.467-.08 4.856-.08 7.323 0 1.752 0 3.504.082 5.254.082 1.99.08 3.98.161 5.97.323 1.035.08 2.149.161 3.184.243 1.274.08 2.627.242 3.901.323 1.115.08 2.229.242 3.264.323 1.194.162 2.308.242 3.502.404 1.114.162 2.308.323 3.423.485 1.497.163 2.985.406 4.457.727 1.99.405 3.981.727 5.971 1.131 2.547.486 5.095 1.133 7.641 1.86a94.838 94.838 0 0 1 13.214 4.606 40.486 40.486 0 0 1 8.12 4.608c1.99 1.374 3.741 2.99 5.174 4.848 1.194 1.537 2.07 3.234 2.547 5.093.319 1.131.399 2.262.319 3.475-.16 2.748-1.195 5.092-2.786 7.193-1.433 1.94-3.264 3.557-5.255 4.93-3.263 2.263-6.686 4.121-10.348 5.577a112.565 112.565 0 0 1-8.756 3.071c-3.661 1.051-7.323 1.94-10.985 2.748-2.069.404-4.219.808-6.288 1.132-1.911.323-3.822.566-5.731.808-1.275.162-2.628.323-3.901.485-1.274.162-2.467.323-3.742.404l-3.104.242c-1.751.081-3.582.243-5.334.323-2.388.081-4.855.243-7.243.324-.876-.081-1.91-.081-2.866-.081ZM79.76 5.072c0 .08 0 .08 0 0h-2.943c-2.627 0-5.333.08-7.96.242-1.035.081-2.15.162-3.184.162-1.274.08-2.548.161-3.742.323l-3.104.242c-1.433.162-2.787.324-4.219.485-1.512.162-2.946.405-4.458.566l-5.731.97c-3.503.646-6.926 1.374-10.348 2.263-3.9 1.051-7.722 2.182-11.384 3.717-2.945 1.213-5.81 2.425-8.517 4.122-1.99 1.213-3.82 2.506-5.413 4.122-1.035 1.052-1.99 2.183-2.627 3.557-.557.97-.876 2.02-1.034 3.152-.16 1.94.159 3.718 1.035 5.415.795 1.454 1.83 2.748 3.024 3.88 1.513 1.453 3.184 2.667 4.935 3.717a54.477 54.477 0 0 0 8.438 4.122c4.696 1.859 9.632 3.232 14.488 4.446 1.947.48 3.912.885 5.89 1.211 1.91.324 3.742.728 5.652.97 2.228.324 4.458.647 6.687.89 1.751.16 3.423.404 5.174.565 1.353.163 2.706.243 4.06.323 1.67.082 3.343.243 5.014.324 1.194.08 2.388.08 3.582.162 1.99.08 3.98.08 5.97.08 1.433 0 2.867 0 4.299-.08 1.91-.081 3.742-.081 5.652-.081 1.592 0 3.183-.163 4.776-.243 1.671-.08 3.264-.242 4.934-.323l3.105-.242c1.354-.163 2.707-.324 4.14-.486 1.513-.162 3.025-.404 4.537-.565 1.911-.243 3.901-.646 5.811-.97a167.158 167.158 0 0 0 9.154-1.94c3.98-.97 7.802-2.1 11.622-3.556 3.264-1.213 6.368-2.667 9.314-4.445 2.07-1.212 4.059-2.668 5.731-4.446 1.195-1.212 2.149-2.506 2.866-4.04.716-1.698.955-3.476.557-5.254-.319-1.454-.876-2.748-1.752-3.88-1.193-1.697-2.706-3.151-4.377-4.364-2.547-1.859-5.254-3.394-8.12-4.687-5.254-2.344-10.667-4.041-16.239-5.415-3.422-.89-6.924-1.536-10.428-2.102-3.183-.565-6.447-.97-9.711-1.374-1.591-.162-3.264-.324-4.855-.566-1.752-.242-3.583-.323-5.333-.404-1.274-.08-2.548-.162-3.742-.242-1.752-.081-3.423-.162-5.175-.243-1.91-.08-3.98-.08-6.05-.08Z" fill="#EDCA19"/><path d="M79.76 5.072h6.21c1.752 0 3.423.08 5.174.242 1.274.081 2.548.162 3.742.243 1.752.08 3.581.242 5.333.403 1.592.163 3.264.323 4.856.566 3.264.405 6.448.727 9.711 1.374 3.503.647 7.005 1.293 10.428 2.101 5.572 1.374 10.985 3.072 16.239 5.415 2.865 1.294 5.572 2.749 8.119 4.688 1.672 1.212 3.184 2.668 4.378 4.365.796 1.212 1.433 2.505 1.752 3.88.397 1.858.159 3.555-.558 5.252-.636 1.536-1.671 2.91-2.865 4.041-1.672 1.779-3.662 3.153-5.732 4.446-2.945 1.778-6.129 3.232-9.313 4.445-3.821 1.455-7.722 2.586-11.621 3.557-3.035.723-6.088 1.37-9.155 1.939-1.911.323-3.901.727-5.811.97-1.513.242-3.025.404-4.538.566-1.353.161-2.706.323-4.138.485l-3.105.242c-1.672.162-3.264.242-4.935.323l-4.776.242c-1.911 0-3.742.082-5.653.082-1.432 0-2.865.08-4.298.08-1.99 0-3.98 0-5.97-.08-1.194-.081-2.388-.081-3.583-.163-1.671-.08-3.343-.16-5.014-.322-1.354-.081-2.707-.243-4.06-.323-1.75-.163-3.422-.324-5.174-.566-2.23-.243-4.457-.566-6.686-.89-1.911-.242-3.822-.646-5.653-.97-1.99-.404-3.98-.726-5.89-1.212-4.935-1.212-9.791-2.505-14.488-4.444-2.945-1.213-5.731-2.506-8.438-4.123-1.751-1.05-3.422-2.263-4.934-3.718-1.194-1.13-2.23-2.425-3.025-3.88-.876-1.696-1.274-3.555-1.036-5.414-.08-1.051.32-2.101.876-3.072a16.376 16.376 0 0 1 2.627-3.556c1.592-1.616 3.423-2.909 5.333-4.121 2.707-1.616 5.572-2.91 8.518-4.122 3.742-1.455 7.562-2.668 11.383-3.718 3.423-.89 6.846-1.617 10.349-2.263l5.73-.97c1.513-.243 2.946-.404 4.458-.566 1.433-.162 2.787-.323 4.22-.485L61.85 5.8c1.273-.08 2.547-.162 3.741-.324 1.034-.08 2.15-.161 3.184-.161 2.627-.162 5.334-.162 7.96-.242 1.036.08 1.99.08 3.025 0 0 .08 0 .08 0 0ZM65.513 30.53c0 .08.08.161.08.242.876 3.799 1.752 7.678 2.627 11.476.08.324.08.324.398.324h5.412c.24 0 .32-.08.399-.324 3.582-8.405 7.244-16.81 10.826-25.216 0-.08.08-.162.08-.323h-7.086c-.159 0-.238.08-.238.162l-.956 2.182c-1.352 3.152-2.705 6.223-4.059 9.375-.08.081-.08.243-.16.243 0-.082-.079-.163-.079-.243a589.878 589.878 0 0 1-2.547-11.477c-.08-.323-.08-.323-.319-.323h-5.412c-.239 0-.319.081-.478.323-1.83 4.203-3.582 8.405-5.413 12.527a1980.04 1980.04 0 0 1-5.492 12.69c-.08.08-.16.242-.08.323h7.084c.16 0 .319-.08.319-.242v-.08c1.671-3.8 3.264-7.598 4.935-11.397.08-.08.08-.162.16-.242ZM32.24 27.216h4.935c.16 0 .24 0 .318-.161.319-.97.797-1.86.956-2.91.238-1.131.238-2.182-.08-3.313-.477-1.536-1.432-2.668-2.866-3.395a9.101 9.101 0 0 0-3.502-.97 13.033 13.033 0 0 0-3.98.162c-2.866.485-5.334 1.778-7.324 3.88-1.432 1.454-2.388 3.232-2.706 5.333a5.139 5.139 0 0 0 .477 3.072c.479.97 1.195 1.616 2.07 2.182.08.081.16.081.24.162v.08h-5.971c-.398 0-.318-.08-.478.324-.16.323-.239.646-.398 1.05a9.737 9.737 0 0 0-.716 2.91c-.16 1.374.08 2.586.637 3.799.716 1.454 1.91 2.343 3.422 2.91.876.323 1.752.484 2.707.565 1.353.162 2.786.162 4.14-.08 2.627-.405 5.014-1.536 7.084-3.315 1.752-1.454 3.025-3.313 3.662-5.576.318-1.05.398-2.101.08-3.152-.399-1.374-1.274-2.506-2.468-3.314-.08-.081-.16-.08-.239-.243Zm17.592-10.425h-7.244c-.238 0-.318.08-.478.323-1.83 4.364-3.741 8.648-5.572 13.012-.636 1.455-1.194 2.99-1.591 4.607-.24 1.05-.399 2.101-.24 3.152.319 1.86 1.274 3.232 2.866 4.122.955.485 1.91.727 3.025.889 1.752.243 3.423.162 5.174-.162 3.582-.646 6.368-2.505 8.518-5.495.955-1.374 1.751-2.91 2.467-4.446 2.23-5.253 4.538-10.507 6.767-15.68 0-.08.079-.16.079-.241h-7.164c-.238 0-.318.08-.477.323-1.274 2.909-2.467 5.819-3.741 8.729-.796 1.778-1.513 3.556-2.308 5.415-.479 1.05-1.036 1.939-1.672 2.828-.558.727-1.274 1.213-2.15 1.536-.955.323-1.99.404-3.025.323a1.481 1.481 0 0 1-.636-.162c-.239-.08-.239-.08-.16-.323 0-.162.08-.323.08-.484.222-.922.542-1.817.955-2.668 1.99-4.526 3.901-9.132 5.89-13.658.08-.728.32-1.294.638-1.94h-.001Zm95.522 14.71h-7.563c-.158 0-.238.08-.238.161-.159.323-.318.727-.477 1.05-.319.728-.796 1.374-1.354 1.94-1.432 1.293-3.183 1.697-5.014 1.455-.955-.162-1.354-.485-1.513-1.697-.08-.485 0-.97.079-1.374a16.898 16.898 0 0 1 2.15-5.577 10.474 10.474 0 0 1 2.945-2.99c1.035-.647 2.229-1.052 3.503-1.052.557 0 1.114 0 1.592.243.398.163.477.405.477.81 0 .16-.079.403-.159.564-.239.808-.398 1.616-.637 2.425-.08.323-.16.323.239.323h7.005c.159 0 .159 0 .239-.162.16-.727.398-1.454.557-2.181.16-1.213.16-2.425-.238-3.638-.638-1.778-1.832-3.07-3.503-3.96-1.115-.646-2.389-.97-3.662-1.05-2.229-.162-4.378.08-6.448.889-2.866 1.05-5.174 2.91-7.085 5.253a20.863 20.863 0 0 0-4.059 8.97 10.477 10.477 0 0 0 0 4.447c.557 2.425 1.831 4.202 3.98 5.415 1.194.646 2.468.97 3.742 1.05 1.83.162 3.581 0 5.333-.484 3.82-1.132 6.766-3.395 8.597-7.032.636-1.213 1.114-2.506 1.671-3.718-.239 0-.239 0-.159-.08Zm-49.91-6.952c-.08 0-.08-.08-.08-.08-.477-2.425-1.035-4.93-1.512-7.355-.08-.323-.08-.323-.318-.323H85.97c0 .08 0 .162.08.242 1.114 4.526 2.229 9.133 3.343 13.66.08.241.08.484-.08.726-1.512 3.557-3.104 7.194-4.617 10.75-.079.08-.159.242-.079.323.08.08.16 0 .239 0h6.925c.24 0 .318-.08.398-.323 1.354-3.153 2.707-6.224 4.06-9.376.08-.161.16-.323.319-.485 2.627-2.343 5.173-4.687 7.8-7.03 3.105-2.83 6.21-5.578 9.314-8.406.08-.081.16-.081.16-.243h-9.474a.72.72 0 0 0-.558.243c-2.627 2.424-5.254 4.93-7.88 7.354-.32.162-.398.243-.478.323Zm-.637 18.024h8.199c.239 0 .398-.08.557-.242l4.777-6.063c.159-.161.238-.242.477-.242h5.015c.239 0 .318 0 .239.323v.567c-.08 1.778-.16 3.636-.318 5.415 0 .242 0 .242.238.242h7.085c.239 0 .239 0 .239-.242 0-.648.079-1.374.079-2.02.08-2.91.16-5.74.239-8.649.079-2.829.159-5.577.238-8.405.08-1.86.08-3.8.16-5.658v-.565c0-.323 0-.323-.239-.323h-5.732c-.16 0-.239 0-.398.162-.08.08-.08.161-.16.242-2.149 2.667-4.298 5.253-6.368 7.92-4.696 5.738-9.313 11.477-14.01 17.297-.238 0-.318.08-.318.242v-.001Z" fill="#1D1F4D"/><path d="M65.512 30.53c-.08.081-.159.243-.159.324-1.671 3.798-3.264 7.597-4.934 11.396v.08c-.08.163-.16.243-.32.243h-7.084c0-.162.08-.242.08-.323 1.83-4.203 3.581-8.406 5.413-12.608 1.83-4.203 3.581-8.325 5.412-12.527.08-.243.16-.324.478-.324h5.413c.319 0 .319 0 .319.323a584.74 584.74 0 0 1 2.546 11.477c0 .08.08.162.08.242.08-.08.16-.162.16-.242 1.353-3.152 2.706-6.224 4.06-9.375l.954-2.183c.08-.162.16-.162.24-.162h7.084c0 .163-.08.243-.08.324-3.582 8.405-7.244 16.81-10.825 25.216-.08.243-.16.323-.399.323h-5.413c-.318 0-.318 0-.398-.323-.876-3.798-1.752-7.678-2.627-11.477.08-.242.08-.323 0-.403Zm.399-4.203c.079.082.079.163.079.163 1.115 4.848 2.149 9.617 3.264 14.467.08.242.08.242.318.242h3.503c.239 0 .318-.08.398-.323 3.263-7.517 6.447-15.033 9.711-22.55.08-.08.08-.162.08-.323h-4.3c-.159 0-.238 0-.318.242 0 0 0 .081-.08.081-2.07 4.77-4.14 9.537-6.13 14.306-.079.081-.079.243-.158.323 0-.08-.08-.162-.08-.242-1.114-4.769-2.15-9.618-3.263-14.387-.08-.242-.08-.242-.319-.242h-3.503c-.238 0-.318.08-.477.323-3.263 7.516-6.447 15.033-9.711 22.55 0 .08-.08.161-.08.161 0 .08 0 .162.08.162h4.219c.159 0 .238 0 .238-.163 0-.08.08-.08.08-.16 2.07-4.769 4.059-9.538 6.13-14.225.238-.242.238-.323.318-.405Zm-33.672.89c.08.162.239.162.319.242 1.194.808 2.069 1.86 2.467 3.314.318 1.05.16 2.102-.08 3.152-.637 2.263-1.91 4.04-3.662 5.576-2.069 1.779-4.378 2.83-7.084 3.315-1.354.242-2.786.242-4.14.08-.954-.08-1.83-.242-2.706-.565-1.512-.566-2.706-1.456-3.423-2.91-.636-1.212-.796-2.505-.636-3.799.08-.97.398-1.94.715-2.909.16-.323.24-.647.399-1.052.16-.403.08-.322.478-.322h5.97v-.081c-.08-.08-.16-.08-.239-.162-.876-.565-1.592-1.212-2.07-2.182-.477-.97-.636-2.02-.477-3.072.318-2.1 1.273-3.798 2.706-5.333 1.99-2.102 4.538-3.314 7.323-3.88 1.354-.243 2.628-.323 3.981-.162a9.123 9.123 0 0 1 3.502.97c1.433.727 2.389 1.86 2.866 3.395.318 1.05.318 2.182.08 3.313-.24 1.052-.637 1.94-.956 2.91-.08.163-.16.163-.318.163h-5.015v-.001ZM32 25.843c.08 0 .08 0 0 0h4.298c.16 0 .16-.08.24-.162.238-.565.477-1.131.557-1.779.159-.888.238-1.777 0-2.585-.319-1.213-1.036-2.02-2.07-2.586-.876-.486-1.83-.728-2.786-.89-1.512-.162-3.025-.162-4.458.162-2.388.485-4.457 1.616-6.209 3.395-1.274 1.293-2.07 2.747-2.388 4.606-.16 1.213.16 2.345 1.035 3.233.397.394.854.722 1.353.97.876.485 1.752.727 2.707.97 1.035.242 2.07.485 3.104.89.478.16.876.323 1.274.646.318.162.397.485.318.808-.079.534-.299 1.037-.637 1.454-.477.727-1.194 1.213-1.91 1.536-1.592.727-3.264.97-5.015.647-.637-.08-1.274-.324-1.752-.808-.238-.243-.477-.566-.477-.89v-.889c.08-.565.318-1.131.477-1.696 0-.082.08-.163.08-.324h-4.218c-.16 0-.16.08-.24.162-.079.242-.159.404-.238.646-.398 1.132-.637 2.343-.477 3.557.159 1.211.636 2.182 1.512 2.99a5.007 5.007 0 0 0 2.547 1.212c2.07.485 4.219.485 6.288 0 2.707-.646 4.935-1.94 6.767-4.04 1.114-1.294 1.83-2.669 2.149-4.365.16-.89.08-1.697-.319-2.505-.557-.97-1.273-1.698-2.308-2.102-.796-.405-1.671-.647-2.547-.89-.955-.241-1.83-.484-2.787-.726-.477-.163-1.034-.324-1.512-.566-.478-.243-.557-.405-.398-.97.16-.566.478-1.052.955-1.455.478-.485 1.035-.808 1.592-1.05 1.433-.566 2.866-.648 4.379-.486.318.081.716.162 1.034.323.478.243.717.647.717 1.213 0 .404-.08.808-.239 1.212-.16.405-.318.808-.398 1.132Zm-9.075 10.102c.716 0 1.513-.08 2.309-.403.715-.243 1.274-.567 1.83-1.132.24-.242.319-.485.478-.727.08-.163.08-.243-.08-.243-.08 0-.16-.08-.238-.08a15.57 15.57 0 0 0-2.07-.647c-1.194-.323-2.308-.566-3.423-1.052-.16-.08-.16.081-.239.163-.318.808-.556 1.697-.876 2.505-.079.163-.079.323-.158.566-.08.485-.08.485.318.727.16.081.319.162.398.162.557.161 1.115.161 1.752.161Zm2.468-10.91c.557.242 1.194.404 1.751.566 1.035.242 2.07.484 3.025.889.239.08.239.08.319-.163.159-.565.318-1.05.557-1.616l.238-.727c.08-.324.08-.324-.238-.404-.08 0-.16 0-.24-.081a7.612 7.612 0 0 0-2.706 0c-.636.162-1.273.323-1.83.727-.399.162-.637.405-.876.809Z" fill="#EDCA19"/><path d="M49.83 16.79a18.656 18.656 0 0 0-.795 1.86c-1.99 4.526-3.9 9.132-5.89 13.659-.399.889-.716 1.778-.956 2.667 0 .161-.08.323-.08.484 0 .243 0 .243.16.324.239.08.398.08.636.162 1.036.08 2.07 0 3.025-.324.876-.323 1.592-.808 2.15-1.536a20.243 20.243 0 0 0 1.672-2.828c.795-1.779 1.591-3.557 2.307-5.415 1.274-2.91 2.548-5.82 3.742-8.73.08-.241.16-.322.478-.322h7.163c0 .08 0 .162-.079.242-2.229 5.253-4.537 10.507-6.766 15.68-.637 1.536-1.433 3.07-2.467 4.445-2.15 2.99-4.936 4.768-8.518 5.496-1.752.323-3.422.404-5.174.162-1.035-.163-2.07-.405-3.025-.89-1.591-.889-2.547-2.343-2.866-4.121-.16-1.052 0-2.102.239-3.153.398-1.616.956-3.071 1.592-4.607 1.83-4.284 3.742-8.647 5.572-13.012.08-.242.24-.323.478-.323h6.925c.24.08.319.08.478.08Zm-2.07 1.294c-.078-.08-.237 0-.317 0h-3.98c-.24 0-.319.08-.478.323-1.83 4.203-3.661 8.405-5.413 12.609a20.191 20.191 0 0 0-1.353 3.88c-.24.888-.398 1.778-.24 2.746.32 1.536 1.037 2.668 2.468 3.315a5.729 5.729 0 0 0 1.912.565c1.75.243 3.422.243 5.094-.08 3.264-.647 5.811-2.264 7.8-5.011.877-1.294 1.593-2.668 2.23-4.122l5.97-13.821c0-.081.08-.162.08-.243-.08-.08-.16 0-.319 0h-3.98c-.239 0-.398.081-.478.324-1.194 2.829-2.467 5.738-3.661 8.567-.717 1.616-1.353 3.232-2.07 4.849a13 13 0 0 1-1.83 3.072 5.387 5.387 0 0 1-1.752 1.535c-.876.485-1.831.809-2.866.89-.796.08-1.592.08-2.387-.081-.32-.082-.638-.163-.876-.324-.319-.242-.558-.484-.558-.889 0-.404 0-.727.08-1.131a20.69 20.69 0 0 1 .955-2.91c1.91-4.446 3.82-8.971 5.732-13.416.159-.405.238-.486.238-.647ZM145.354 31.5v.08c-.557 1.213-1.035 2.506-1.671 3.719-1.831 3.637-4.777 5.9-8.598 7.032a14.808 14.808 0 0 1-5.332.485c-1.354-.082-2.548-.405-3.742-1.052-2.149-1.13-3.423-2.99-3.981-5.414-.318-1.455-.238-2.99 0-4.446a20.877 20.877 0 0 1 4.06-8.97c1.911-2.425 4.219-4.203 7.085-5.254 2.07-.808 4.219-1.05 6.448-.89 1.273.082 2.547.405 3.661 1.052 1.672.889 2.866 2.182 3.504 3.96a7.098 7.098 0 0 1 .238 3.637c-.079.727-.319 1.454-.558 2.182 0 .162-.079.162-.238.162h-7.005c-.398 0-.319 0-.239-.324.239-.808.398-1.616.637-2.424.08-.162.08-.404.16-.566.079-.404-.08-.647-.478-.809-.558-.242-1.115-.242-1.592-.242-1.274 0-2.388.404-3.503 1.051-1.194.727-2.149 1.778-2.945 2.99a14.028 14.028 0 0 0-2.15 5.577c-.079.485-.159.89-.079 1.374.079 1.212.557 1.535 1.512 1.697 1.911.243 3.583-.162 5.015-1.454.558-.567 1.035-1.213 1.353-1.94.16-.323.319-.728.478-1.05.08-.163.16-.163.239-.163h7.721Zm-2.07 1.293h-4.219c-.397 0-.636.163-.795.485-.478 1.213-1.354 2.264-2.468 2.991-1.671 1.05-3.503 1.373-5.413 1.05-1.433-.242-2.308-1.131-2.547-2.586-.16-.727-.08-1.455.079-2.182.319-1.94 1.036-3.799 2.07-5.496.796-1.293 1.751-2.424 2.946-3.313 1.671-1.293 3.581-1.779 5.651-1.617.477.08 1.035.161 1.512.404.955.485 1.354 1.293 1.194 2.344-.079.485-.239.89-.318 1.374 0 .162 0 .162.159.162h4.299c.239 0 .239 0 .319-.243.079-.323.159-.566.238-.89.239-1.05.239-2.1-.079-3.07-.399-1.374-1.274-2.425-2.468-3.152-1.035-.647-2.15-.97-3.343-1.052-1.911-.16-3.821 0-5.652.648-2.707.97-5.016 2.586-6.846 4.849-2.229 2.668-3.582 5.738-4.139 9.133-.239 1.212-.239 2.425.079 3.637.478 2.101 1.592 3.637 3.582 4.526.876.404 1.752.565 2.628.647 1.591.161 3.183.08 4.775-.405 3.343-.89 6.05-2.828 7.801-5.9.24-.646.558-1.454.955-2.343Zm-47.84-8.243c.08 0 .159-.08.239-.162 2.627-2.425 5.254-4.93 7.88-7.355a.716.716 0 0 1 .558-.242h9.472c0 .162-.08.162-.16.242-3.104 2.83-6.209 5.577-9.314 8.406-2.627 2.343-5.173 4.687-7.8 7.031-.16.163-.239.323-.319.485-1.353 3.152-2.706 6.223-4.059 9.376-.08.242-.16.323-.399.323h-7.162c0-.162.08-.243.08-.323 1.512-3.557 3.104-7.194 4.616-10.75.08-.242.08-.485.08-.727-1.115-4.527-2.229-9.133-3.343-13.659 0-.081 0-.162-.08-.243.08-.08.16 0 .24 0h7.322c.319 0 .319 0 .319.323.477 2.426 1.035 4.93 1.512 7.356.24-.163.24-.163.318-.081Zm-.796 2.505c-.08-.08-.08-.08-.08-.162-.637-2.828-1.193-5.657-1.831-8.486-.08-.323 0-.323-.398-.323h-4.855v.323c1.034 4.122 1.99 8.325 3.025 12.447.079.242 0 .404-.08.646a465.523 465.523 0 0 0-3.98 9.295c-.08.08-.08.242-.08.323.08.08.24 0 .318 0h3.98c.24 0 .32-.08.478-.323 1.274-2.99 2.548-5.9 3.821-8.89.08-.163.16-.324.318-.405 2.707-2.424 5.413-4.93 8.12-7.355 2.149-1.94 4.378-3.96 6.527-5.9l.239-.242h-5.652c-.238 0-.397.08-.477.242-3.104 2.91-6.13 5.739-9.234 8.648a.175.175 0 0 1-.05.112.17.17 0 0 1-.11.05Zm.16 15.518c0-.162.079-.162.158-.242 4.697-5.739 9.314-11.477 14.01-17.297 2.149-2.666 4.298-5.253 6.368-7.92.08-.08.16-.162.16-.242.079-.163.238-.163.398-.163h5.731c.238 0 .318 0 .238.325v.565c-.079 1.859-.079 3.799-.159 5.658-.079 2.828-.159 5.576-.238 8.405-.08 2.91-.16 5.738-.239 8.648 0 .647 0 1.374-.079 2.02 0 .243 0 .243-.24.243h-7.084c-.239 0-.239 0-.239-.242.08-1.779.16-3.638.319-5.415v-.566c0-.324 0-.324-.239-.324h-5.015c-.239 0-.318.08-.478.243l-4.776 6.062a.717.717 0 0 1-.558.242h-8.04.002Zm2.705-1.374h4.777c.238 0 .397-.08.477-.242 1.592-2.02 3.183-4.041 4.697-5.982a.716.716 0 0 1 .557-.242h7.005c.16 0 .16.08.16.162-.08 1.131-.16 2.182-.16 3.314-.079.889-.079 1.858-.159 2.748 0 .242 0 .242.239.242h4.378c.238 0 .238 0 .318-.242v-.081c.079-3.152.159-6.304.239-9.537.08-2.91.16-5.738.239-8.648 0-1.374.079-2.829.079-4.203v-.323c0-.081 0-.163-.159-.163h-3.82c-.239 0-.318.082-.478.243-6.129 7.598-12.258 15.114-18.388 22.71.16.082.08.163 0 .244Z" fill="#EDCA19"/><path d="M65.91 26.327c-.08.082-.08.243-.16.324-2.068 4.768-4.058 9.537-6.128 14.225 0 .08-.08.08-.08.162 0 .16-.16.16-.238.16h-4.22c-.08 0-.16 0-.08-.16 0-.081.08-.162.08-.162 3.265-7.517 6.449-15.033 9.712-22.55.08-.242.239-.323.477-.323h3.503c.239 0 .239 0 .319.242 1.114 4.769 2.149 9.618 3.263 14.387 0 .081.08.162.08.243.079-.082.159-.163.159-.324 2.07-4.768 4.139-9.537 6.13-14.305 0 0 0-.081.079-.081.08-.163.16-.243.318-.243h4.3c0 .162-.08.243-.08.323-3.264 7.516-6.449 15.033-9.712 22.55-.08.242-.16.323-.398.323H69.73c-.239 0-.239 0-.318-.242-1.115-4.85-2.149-9.618-3.264-14.467-.16 0-.16 0-.238-.082ZM32 25.843c.08-.324.24-.727.318-1.05.16-.405.24-.81.24-1.213 0-.566-.24-.97-.717-1.212-.319-.163-.637-.243-1.035-.324-1.512-.162-2.945-.08-4.378.485-.558.243-1.114.566-1.592 1.051a4.592 4.592 0 0 0-.956 1.455c-.159.484-.079.726.399.97.477.242.955.404 1.512.565.955.243 1.83.485 2.786.727.876.243 1.671.486 2.547.89 1.036.485 1.752 1.131 2.308 2.101.399.808.479 1.616.32 2.505-.32 1.617-1.036 3.072-2.15 4.365-1.831 2.102-4.14 3.394-6.766 4.04-2.07.486-4.14.486-6.289 0-.955-.241-1.83-.564-2.547-1.212-.876-.808-1.353-1.859-1.512-2.99-.16-1.212.08-2.424.477-3.556.08-.242.16-.404.24-.647.078-.08.078-.161.238-.161h4.219c.08.081 0 .243-.08.323-.16.566-.398 1.05-.477 1.697-.08.291-.08.599 0 .89.079.323.238.646.477.889.478.485 1.114.646 1.752.808 1.75.242 3.422.08 5.015-.646.795-.405 1.432-.89 1.91-1.536.318-.405.557-.89.636-1.456a.772.772 0 0 0-.318-.808 9.453 9.453 0 0 0-1.273-.646c-1.035-.404-2.07-.646-3.105-.89a15.418 15.418 0 0 1-2.707-.969 5.23 5.23 0 0 1-1.353-.97c-.876-.889-1.193-2.02-1.034-3.233.238-1.778 1.114-3.313 2.387-4.607 1.752-1.778 3.822-2.828 6.21-3.394 1.512-.324 2.945-.404 4.457-.162.955.081 1.91.404 2.787.89 1.034.565 1.751 1.454 2.069 2.586.239.89.16 1.778 0 2.586-.16.647-.319 1.212-.557 1.778 0 .08 0 .08-.16.08H32c.08 0 .08 0 0 0Z" fill="#1D1F4D"/><path d="M22.925 35.945c-.636 0-1.194 0-1.751-.162-.16-.08-.318-.08-.398-.161-.398-.242-.398-.162-.318-.727 0-.162.08-.404.16-.566.318-.808.556-1.697.875-2.505 0-.082.08-.243.238-.163 1.114.486 2.309.729 3.423 1.052.716.161 1.433.404 2.07.646.08 0 .16.08.239.08.159.082.159.163.079.244l-.478.726c-.477.566-1.114.89-1.83 1.133-.796.323-1.592.403-2.309.403Zm2.468-10.91c.239-.324.477-.566.796-.809a3.983 3.983 0 0 1 1.831-.726 7.615 7.615 0 0 1 2.707 0c.079 0 .159 0 .238.08.24.08.318.08.24.404l-.24.727c-.16.566-.318 1.051-.557 1.616-.08.243-.08.243-.319.163-1.035-.324-1.99-.648-3.025-.89-.477-.242-1.035-.404-1.671-.566Zm22.368-6.951c0 .162-.08.242-.08.323-1.91 4.446-3.82 8.971-5.73 13.416-.399.97-.797 1.94-.956 2.91-.08.404-.08.727-.08 1.132 0 .404.16.727.558.889.238.162.556.323.876.323.795.162 1.591.162 2.387.08 1.036-.08 1.99-.403 2.866-.889a5.386 5.386 0 0 0 1.751-1.535c.716-.97 1.353-2.02 1.831-3.071.716-1.616 1.433-3.233 2.07-4.85 1.194-2.829 2.467-5.738 3.661-8.567.08-.242.24-.323.478-.323h4.299c.079.081 0 .162-.08.243l-5.97 13.82c-.637 1.455-1.353 2.829-2.229 4.122-1.91 2.748-4.537 4.446-7.801 5.01-1.672.325-3.422.325-5.095.082a5.715 5.715 0 0 1-1.91-.566c-1.433-.647-2.149-1.778-2.467-3.314-.16-.89 0-1.778.238-2.747.318-1.294.796-2.587 1.353-3.88 1.831-4.202 3.662-8.405 5.413-12.608.08-.242.239-.324.478-.324h3.98c-.08.323.08.323.16.323h-.001Zm95.523 14.71c-.397.889-.716 1.697-1.194 2.424-1.751 3.072-4.457 5.011-7.8 5.9-1.592.404-3.184.566-4.777.404a8.967 8.967 0 0 1-2.627-.647c-1.91-.889-3.104-2.424-3.582-4.526-.239-1.212-.239-2.424-.08-3.636.638-3.395 1.991-6.466 4.14-9.133 1.831-2.263 4.059-3.88 6.847-4.85 1.829-.646 3.74-.808 5.65-.646 1.194.08 2.309.404 3.343 1.051 1.195.727 2.07 1.778 2.468 3.151.319 1.052.24 2.02.08 3.072-.08.323-.16.566-.239.889-.08.243-.08.243-.318.243h-4.299c-.159 0-.159-.081-.159-.163.08-.485.239-.89.318-1.373.16-1.052-.238-1.859-1.193-2.344-.478-.243-.956-.324-1.513-.404-2.069-.163-3.98.404-5.652 1.616-1.194.89-2.149 2.02-2.945 3.314-1.035 1.697-1.671 3.556-2.069 5.496-.16.727-.16 1.454-.08 2.182.239 1.455 1.114 2.344 2.547 2.586 1.911.324 3.741 0 5.413-1.05 1.114-.727 1.911-1.698 2.467-2.99.16-.405.319-.486.797-.486h3.821c.318-.08.477-.08.636-.08Zm-48.636-5.738c.08 0 .16-.082.239-.163 3.104-2.91 6.129-5.737 9.233-8.648.16-.162.319-.242.478-.242h5.651c0 .162-.159.162-.238.242-2.149 1.94-4.379 3.96-6.527 5.9-2.707 2.425-5.413 4.93-8.12 7.355-.16.162-.239.242-.318.404-1.274 2.991-2.547 5.9-3.822 8.891-.079.242-.159.323-.477.323h-4.298c0-.162.079-.243.079-.323a465.293 465.293 0 0 0 3.98-9.295c.08-.242.08-.404.08-.646-1.035-4.121-1.99-8.325-3.025-12.447 0-.08-.08-.162 0-.323.08-.08.24 0 .318 0h4.537c.399 0 .319 0 .399.323.637 2.83 1.194 5.658 1.83 8.486-.079.081-.079.163 0 .163Zm2.865 14.143c0-.162.08-.162.16-.242 6.129-7.598 12.258-15.115 18.388-22.711.159-.162.238-.243.477-.243h3.822c.079 0 .158.08.158.162v.323c0 1.374-.079 2.829-.079 4.203-.08 2.91-.16 5.738-.239 8.648-.08 3.152-.16 6.303-.239 9.536v.082c0 .242 0 .242-.318.242h-4.379c-.238 0-.238 0-.238-.242.08-.89.08-1.86.16-2.748.079-1.132.079-2.183.158-3.314 0-.162 0-.243-.159-.162h-7.006a.716.716 0 0 0-.556.242c-1.592 2.021-3.184 4.041-4.697 5.982-.16.161-.318.242-.477.242h-4.936Zm13.373-10.507h4.457c.239 0 .239 0 .239-.242.079-.89.079-1.779.159-2.668.08-.889.08-1.858.16-2.748v-.726c-1.672 2.182-3.344 4.284-5.015 6.384Z" fill="#1D1F4D"/><path d="m110.886 30.693 5.015-6.305v.727c-.08.89-.08 1.86-.16 2.748-.08.89-.08 1.779-.159 2.668 0 .242 0 .242-.239.242h-4.298c0-.08-.08-.08-.16-.08h.001Zm3.502-2.183c-.239.08-.636.647-.716.89h.477c.16 0 .16-.081.239-.163v-.726Z" fill="#EDCA19"/><path d="M114.388 28.51v.647c0 .161-.08.242-.239.161h-.477c.08-.162.477-.646.715-.808h.001Z" fill="#1D1F4D"/></svg>