<svg width="250" height="50" fill="none" xmlns="http://www.w3.org/2000/svg"><g clip-path="url(#a)"><path d="M70.481 13.749h7.152c6.944 0 11.297 5.164 11.297 11.38 0 6.323-4.353 11.381-11.297 11.381H70.48V13.75Zm7.048 20.97c5.908 0 9.225-4.215 9.225-9.59 0-5.373-3.213-9.589-9.225-9.589h-5.182V34.72h5.182ZM97.118 13.749h-1.865v22.656h1.865V13.749ZM102.094 13.749h2.28l8.085 20.548 8.084-20.548h2.28l-9.121 22.761h-2.384l-9.224-22.761ZM129.664 13.749h-1.865v22.656h1.865V13.749ZM136.92 31.874c1.451 1.686 3.731 3.267 6.944 3.267 4.56 0 5.908-2.635 5.908-4.532 0-3.16-3.006-4.11-6.115-4.952-3.524-.949-7.256-2.002-7.256-6.217 0-3.689 3.317-6.007 7.359-6.007 3.317 0 5.805 1.16 7.567 3.161l-1.244 1.476c-1.555-2.003-3.835-2.845-6.426-2.845-3.006 0-5.183 1.685-5.183 4.215 0 2.74 2.799 3.477 5.805 4.32 3.627 1.054 7.566 2.213 7.566 6.85 0 2.845-1.866 6.427-7.981 6.427-3.731 0-6.426-1.475-8.188-3.582l1.244-1.581ZM159.826 13.749h-1.866v22.656h1.866V13.749ZM177.135 13.433c6.53 0 10.883 5.058 10.883 11.697 0 6.639-4.353 11.697-10.883 11.697-6.53 0-10.883-5.058-10.883-11.697.104-6.639 4.353-11.697 10.883-11.697Zm0 1.792c-5.39 0-8.81 4.215-8.81 10.01 0 5.69 3.42 10.011 8.81 10.011 5.39 0 8.81-4.215 8.81-10.01 0-5.796-3.42-10.011-8.81-10.011ZM196.31 16.91v19.6h-1.969V13.75h1.969l13.993 19.39v-19.39h1.969V36.51h-1.866l-14.096-19.6ZM231.654 13.749h-1.866v22.656h1.866V13.749ZM240.775 13.749h-1.865v22.656h1.865V13.749ZM249.896 13.75h-1.865v22.655h1.865V13.75Z" fill="#fff"/><path d="M47.99 25.235c0 13.489-10.78 24.448-24.047 24.448C10.676 49.683 0 38.618 0 25.235 0 11.853 10.78.788 24.046.788c13.267 0 23.943 10.96 23.943 24.447Z" fill="#082057"/><path d="M42.496 36.616h2.798c-4.042 7.693-12.127 12.961-21.248 12.961C10.78 49.577 0 38.724 0 25.235 0 11.747 10.78.788 24.046.788c13.267 0 24.047 10.96 24.047 24.447 0 3.583-.726 7.06-2.177 10.117l-.725-10.327h-6.22l-.725 2.634h.933l-3.11 4.953-.414-7.587h-6.323l-.725 2.634h.933l-4.146 6.323h-3.42c-.311 0-1.763-.316-1.763-2.108 0-1.686 1.659-4.215 3.213-4.215h.726l-.31 1.265h3.109l1.036-4.005h-4.664c-2.902 0-5.286 2.108-6.012 4.32l1.348-4.214H14.51l-.726 2.634h1.037l-1.037 3.899-2.798-6.533H7.152l-.726 2.634h1.037l-2.384 8.957h3.11s1.243-4.426 1.554-5.585a817.78 817.78 0 0 0 2.28 5.585h3.42l1.555-5.69a11.194 11.194 0 0 0 0 2.634c.311 1.897 2.073 3.056 4.043 3.056h6.218l1.037-1.686h4.457l.104 1.686h3.938l1.037-1.686h4.56l.104 1.686Zm-2.799-4.531h2.488l-.104-3.688-2.384 3.688Zm-9.535.105h2.487l-.103-3.688-2.384 3.688ZM70.48 43.044h2.696c2.073 0 3.524 1.265 3.524 3.267s-1.451 3.266-3.524 3.266H70.48v-6.533Zm2.696 5.058c1.14 0 1.762-.843 1.762-1.791 0-1.054-.622-1.792-1.762-1.792h-1.037v3.583h1.037ZM80.016 43.044h-1.658v6.533h1.658v-6.533ZM82.504 47.365a2.93 2.93 0 0 0 2.073.843c.622 0 .933-.211.933-.527 0-.422-.415-.527-1.14-.632-1.037-.211-2.591-.527-2.591-2.002 0-1.054.932-2.108 2.59-2.108 1.037 0 1.97.316 2.592.948l-.83 1.16c-.517-.422-1.243-.633-1.865-.633-.518 0-.725.211-.725.527 0 .316.414.422 1.14.632 1.036.211 2.487.527 2.487 2.002 0 1.265-.933 2.213-2.695 2.213-1.347 0-2.176-.421-2.902-1.053l.933-1.37ZM88.516 46.311c0-2.002 1.554-3.372 3.42-3.372 1.555 0 2.488.843 2.902 1.791l-1.45.738c-.208-.527-.726-.948-1.452-.948-1.036 0-1.762.843-1.762 1.896 0 1.054.726 1.897 1.762 1.897.622 0 1.244-.421 1.451-.948l1.451.737c-.414.843-1.244 1.792-2.902 1.792-1.866-.211-3.42-1.58-3.42-3.583ZM99.606 42.939c1.969 0 3.42 1.37 3.42 3.372s-1.451 3.372-3.42 3.372c-1.97 0-3.42-1.37-3.42-3.372-.104-2.002 1.45-3.372 3.42-3.372Zm0 1.475c-1.036 0-1.762.843-1.762 1.897s.726 1.897 1.762 1.897c1.037 0 1.762-.843 1.762-1.897s-.725-1.897-1.762-1.897ZM103.856 43.044h1.969l1.555 4.742 1.554-4.742h1.866l-2.384 6.533h-2.073l-2.487-6.533ZM112.251 43.044h4.664v1.37h-3.006v1.159h3.006v1.37h-3.006v1.264h3.006v1.37h-4.664v-6.533ZM121.372 47.364h-.829v2.213h-1.658v-6.533h3.213c1.451 0 2.28.948 2.28 2.213 0 1.159-.725 1.791-1.244 2.002l1.348 2.424h-1.866l-1.244-2.319Zm.415-2.95h-1.348v1.475h1.348c.414 0 .829-.316.829-.738 0-.421-.415-.737-.829-.737ZM131.115 42.834h-.933v6.954h.933v-6.954ZM136.919 43.044h2.695c2.073 0 3.524 1.265 3.524 3.267s-1.451 3.266-3.524 3.266h-2.695v-6.533Zm2.695 5.058c1.14 0 1.762-.843 1.762-1.791 0-1.054-.622-1.792-1.762-1.792h-1.036v3.583h1.036ZM144.9 43.044h4.664v1.37h-3.005v1.159h3.005v1.37h-3.005v1.264h3.005v1.37H144.9v-6.533ZM150.808 43.044h1.866l1.555 4.742 1.658-4.742h1.866l-2.488 6.533h-2.073l-2.384-6.533ZM159.1 43.044h4.768v1.37h-3.109v1.159h3.006v1.37h-3.006v1.264h3.109v1.37H159.1v-6.533ZM165.734 43.044h1.658v5.058h2.591v1.475h-4.249v-6.533ZM174.647 42.939c1.97 0 3.421 1.37 3.421 3.372s-1.451 3.372-3.421 3.372c-1.969 0-3.42-1.37-3.42-3.372-.104-2.002 1.451-3.372 3.42-3.372Zm0 1.475c-1.036 0-1.762.843-1.762 1.897s.726 1.897 1.762 1.897c1.037 0 1.762-.843 1.762-1.897s-.725-1.897-1.762-1.897ZM179.83 43.044h3.213c1.451 0 2.28.948 2.28 2.213 0 1.159-.829 2.107-2.28 2.107h-1.555v2.213h-1.658v-6.533Zm3.006 1.37h-1.348v1.475h1.348a.714.714 0 0 0 .725-.738.714.714 0 0 0-.725-.737ZM192.06 42.834h-.932v6.954h.932v-6.954ZM197.865 43.044h2.695c2.073 0 3.524 1.265 3.524 3.267s-1.451 3.266-3.524 3.266h-2.695v-6.533Zm2.695 5.058c1.14 0 1.762-.843 1.762-1.791 0-1.054-.622-1.792-1.762-1.792h-1.037v3.583h1.037ZM205.846 43.044h4.664v1.37h-3.006v1.159h3.006v1.37h-3.006v1.264h3.006v1.37h-4.664v-6.533ZM212.375 43.044h2.695c2.073 0 3.524 1.265 3.524 3.267s-1.451 3.266-3.524 3.266h-2.695v-6.533Zm2.799 5.058c1.14 0 1.762-.843 1.762-1.791 0-1.054-.622-1.792-1.762-1.792h-1.036v3.583h1.036ZM222.015 43.044h-1.659v6.533h1.659v-6.533ZM223.777 46.311c0-2.002 1.555-3.372 3.42-3.372 1.555 0 2.488.843 2.902 1.791l-1.451.738c-.207-.527-.725-.948-1.451-.948-1.036 0-1.762.843-1.762 1.896 0 1.054.726 1.897 1.762 1.897.622 0 1.244-.421 1.451-.948l1.451.737c-.414.843-1.243 1.792-2.902 1.792-1.969-.211-3.42-1.58-3.42-3.583ZM235.696 48.629h-2.694l-.311.948h-1.762l2.383-6.533h2.073l2.488 6.533h-1.762l-.415-.948Zm-2.176-1.475h1.762l-.933-2.635-.829 2.635ZM240.05 44.52h-1.762v-1.476h5.286v1.475h-1.866v5.058h-1.658V44.52ZM245.232 43.044H250v1.37h-3.11v1.159h3.006v1.37h-3.006v1.264H250v1.37h-4.768v-6.533Z" fill="#fff"/><path d="M47.99 36.616c-1.037 0-1.97.843-1.97 2.002 0 1.054.829 2.002 1.97 2.002 1.14 0 1.968-.842 1.968-2.002 0-1.159-.829-2.002-1.969-2.002Zm1.554 1.897c0 .843-.726 1.58-1.555 1.58-.83 0-1.555-.737-1.555-1.58 0-.843.622-1.58 1.555-1.58.933.105 1.555.737 1.555 1.58Z" fill="#082057"/><path d="M48.922 38.092c0-.422-.414-.738-.83-.738h-.932v2.318h.518v-.843h.311l.519.843h.518l-.622-.843c.207-.105.518-.21.518-.737Zm-.414 0c0 .21-.208.316-.312.316h-.518v-.633h.519c.103 0 .31.106.31.317Z" fill="#082057"/></g><defs><clipPath id="a"><path fill="#fff" transform="translate(0 .788)" d="M0 0h250v49H0z"/></clipPath></defs></svg>