<svg width="105" height="50" fill="none" xmlns="http://www.w3.org/2000/svg"><g clip-path="url(#a)" fill="#061F5C"><path d="M27.764 37.568c0-2.606.054-5.212 0-7.818-.053-.977-.321-2.008-.536-2.986-.16-.76 0-1.031.804-1.031h3.163c.482 0 .643.163.75.651.697 2.606.643 5.266.643 7.926v14.713c0 .977 0 .977-.965.977h-3.752c-1.93-4.343-3.859-8.686-5.735-13.03h-.16v12.324c0 .597-.161.76-.75.706a27.67 27.67 0 0 0-3.002 0c-.483 0-.644-.217-.644-.651V29.967c0-.977-.268-1.9-.428-2.877-.054-.271-.054-.488-.054-.76-.053-.434.16-.543.482-.543h4.342c.16 0 .429.217.536.434.965 2.064 1.876 4.18 2.84 6.298a189.296 189.296 0 0 0 2.198 4.777c.054.109.161.218.215.326-.054 0 0 0 .053-.054ZM35.107 11.184c0 .38-.053.597-.053.814v11.51c0 .542-.161.705-.697.705a29.68 29.68 0 0 0-3.109 0c-.429 0-.59-.163-.59-.597V4.832c0-1.195-.267-2.335-.428-3.53C30.123.11 30.069 0 31.248 0h3.591c.375 0 .59.109.804.543.697 1.737 1.501 3.42 2.251 5.103.858 1.9 1.662 3.855 2.52 5.755.053.162.214.325.428.434 0-.163.054-.326.054-.489 0-2.388.053-4.777 0-7.166-.054-1.14-.268-2.28-.536-3.366-.16-.597.107-.814.536-.814a38.438 38.438 0 0 1 3.537 0c.161 0 .483.271.536.489.215 1.194.59 2.388.59 3.528.054 6.46.054 12.921.054 19.381v.76h-4.395c-.108 0-.269-.162-.322-.27a291.359 291.359 0 0 1-3.109-7.221c-.75-1.738-1.554-3.475-2.305-5.212-.16 0-.214-.054-.375-.271ZM90.475 12.16V3.747c0-1.574 1.072-3.149 2.519-3.583.429-.109.858-.217 1.286-.217h6.807c1.876 0 3.163 1.086 3.645 2.714.107.434.214.869.214 1.303 0 5.375.054 10.804 0 16.178 0 1.846-.911 3.42-2.68 3.909-.214.054-.428.054-.643.054-2.572 0-5.092-.054-7.664 0-1.77.055-3.11-1.465-3.43-2.823-.108-.434-.108-.814-.108-1.248.054-2.498.054-5.158.054-7.872Zm9.701 7.764V4.506h-4.931v15.418h4.931ZM69.785 39.74h-5.68v10.206h-4.771v-.706c0-5.918-.054-11.78 0-17.698 0-1.52-.322-2.986-.59-4.452-.053-.271-.16-.543-.214-.814-.054-.326.053-.543.429-.543h3.859c.16 0 .428.217.428.38.268 1.466.644 2.931.75 4.397.108 1.575.054 3.15.054 4.778h5.628c0-1.629.108-3.258 0-4.832-.107-1.574-.428-3.149-.643-4.723h4.342c.16 0 .375.217.428.38.536 2.226.697 4.452.697 6.732-.053 5.429 0 10.858 0 16.34v.76h-4.716V39.74ZM57.726 50c-3.913 0-7.718.054-11.524-.054-1.286-.054-2.144-1.032-2.626-2.226-.268-.706-.375-1.575-.375-2.334-.054-5.104 0-10.207 0-15.31 0-1.954 1.125-3.855 3.215-4.235.215-.054.43-.054.644-.054h8.522c.59 0 .858.217.965.76.16.977.321 1.9.536 2.878.16.651-.161.705-.59.705h-7.718c-.536 0-.858.163-.858.815V44.95c0 .652.215.815.804.815 1.394-.055 2.734 0 4.127 0v-5.972h-2.197c-.429 0-.643-.109-.75-.597-.161-.87-.43-1.738-.59-2.66-.215-.87 0-1.086.857-1.086 2.037 0 4.074.054 6.11 0 .59 0 .751.271.858.76.697 2.551.697 5.103.643 7.709-.053 1.574 0 3.148 0 4.723.054.38 0 .868-.053 1.357ZM9.755 19.924v-5.972c-.75 0-1.5-.054-2.251 0-.59.055-.75-.271-.804-.706-.215-.922-.375-1.791-.59-2.714-.16-.651.054-.869.697-.869h6.271c.536 0 .75.218.804.652.268 1.629.59 3.257.536 4.94-.053 2.986 0 5.918 0 9.012h-.697c-3.43 0-6.86-.054-10.29.054-1.233.055-2.895-1.357-3.163-2.606C.108 20.848 0 20.087 0 19.328V4.289C0 2.497.697 1.086 2.358.326 2.788.109 3.27.054 3.698 0h8.63c.482 0 .75.109.857.651.161.923.43 1.792.536 2.715.161.814 0 .923-.804.923H5.681c-.804 0-.964.271-.964.923.053 4.669 0 9.337 0 14.006 0 .543.16.76.696.76 1.448-.054 2.895-.054 4.342-.054ZM95.46 30.185v4.126c0 .217.268.488.428.542 2.037.652 4.02 1.25 6.057 1.846 1.501.435 2.412 2.172 2.466 3.312.053 2.226.053 4.397 0 6.623 0 1.466-1.448 3.475-3.324 3.366-2.197-.109-4.395-.054-6.592-.054-1.555 0-2.787-.869-3.27-2.389-.214-.706-.214-1.412-.268-2.117-.053-.977 0-1.955 0-2.932 0-.488.161-.651.643-.597.858.054 1.716.054 2.573 0 .536-.054.697.217.75.597.215 1.032.376 2.063.537 3.149h4.234c.107 0 .375-.271.375-.38a55.363 55.363 0 0 0 0-4.235c0-.217-.322-.488-.536-.543a199.568 199.568 0 0 0-5.36-1.574c-2.197-.597-3.055-1.9-3.162-4.017a43.154 43.154 0 0 1 0-5.266c.107-2.118 1.393-3.963 3.859-3.91 2.037.055 4.073.055 6.11 0 2.037-.053 3.484 1.792 3.538 3.584.053 1.412 0 2.769 0 4.235h-3.538c-.107 0-.268-.218-.321-.38-.215-.815-.322-1.683-.536-2.552-.054-.163-.268-.434-.43-.434H95.46ZM70.322 19.924v-4.506c0-.489-.268-.706-.59-.814-1.715-.489-3.484-.977-5.199-1.466-2.197-.597-3.055-1.846-3.162-3.963a44.045 44.045 0 0 1 0-5.32c.053-1.412.59-2.66 1.822-3.42A3.612 3.612 0 0 1 64.855 0c2.144-.054 4.234 0 6.378 0 1.93 0 3.323 1.629 3.43 3.312.107 1.357 0 2.714 0 4.071v.38H71.18c-.107 0-.321-.217-.375-.38-.214-.868-.322-1.737-.536-2.606-.053-.162-.268-.38-.375-.38-1.34-.054-2.68 0-4.074 0v4.235c0 .163.215.38.376.434 1.768.543 3.537 1.086 5.36 1.575 1.983.488 3.108 1.9 3.108 4.017 0 2.009.054 4.017 0 5.972-.053 1.574-.75 2.768-2.251 3.474-.214.109-.429.109-.643.109-2.305 0-4.61-.055-6.914.054-1.662.054-2.841-1.086-3.216-2.443-.215-.706-.215-1.466-.268-2.171-.054-.869.053-1.792 0-2.66-.054-.706.214-.87.857-.815.75.054 1.447.054 2.198 0 .697-.054.911.271.965.814.107.815.214 1.683.428 2.498.054.163.268.434.43.434 1.232.054 2.465 0 3.698 0h.375ZM5.574 34.04c.483-.598 1.019-1.195 1.501-1.847.804-1.031 1.554-2.117 2.466-3.04.59-.651.696-1.248.482-2.008-.054-.218-.214-.49-.16-.706.053-.326.053-.652.589-.652 1.018.055 2.037 0 3.108 0 .376 0 .59.055.697.543.161.923.429 1.846.59 2.769.053.271-.054.706-.268.923-1.555 1.954-3.109 3.909-4.717 5.809-.375.488-.75.977-1.18 1.465.805 1.25 1.555 2.552 2.36 3.855 1.66 2.66 3.322 5.32 4.93 8.035.268.434.108.814-.428.814h-3.806c-.214 0-.482-.163-.59-.326-1.607-2.605-3.215-5.266-4.823-7.872a9.289 9.289 0 0 0-.483-.76h-.214c-.107.272-.215.543-.215.815v7.546c0 .489-.107.706-.643.651A18.604 18.604 0 0 0 1.77 50c-.59 0-.75-.163-.75-.706V34.636c0-1.086-.054-2.117 0-3.203.107-1.574-.269-3.148-.59-4.669-.107-.543-.054-1.085.75-1.031.911.054 1.822.054 2.734 0 .536 0 .696.217.804.651.482 1.9.75 3.855.643 5.81-.054.542 0 1.14 0 1.682.107.109.16.109.214.163ZM21.118 13.79v6.243h6.914c.375 0 .59.054.643.543.108.922.43 1.845.59 2.768.16.706 0 .869-.75.869H17.152c-.858 0-.858 0-.858-.923V4.289c0-1.14-.322-2.28-.536-3.42-.053-.598.054-.869.697-.869h10.987c.537 0 .805.109.858.76.107.923.375 1.792.59 2.714.16.706.053.87-.643.87h-7.075v5.21h4.288c1.232 0 1.232 0 1.554 1.195.16.706.322 1.466.429 2.172.107.814 0 .923-.804.923h-4.77c-.269-.055-.483-.055-.751-.055ZM81.256 4.289V9.5h4.288c1.232 0 1.232 0 1.554 1.194.16.706.322 1.466.429 2.171.107.815 0 .923-.804.923h-5.467v6.244H88.116c.376 0 .59 0 .697.543.107.922.429 1.845.59 2.768.16.706 0 .869-.75.869H77.235c-.697 0-.804-.272-.804-.869 0-6.352.053-12.703 0-19.055 0-1.14-.322-2.28-.536-3.42-.107-.598.053-.869.697-.869H87.58c.536 0 .804.109.858.76.107.923.375 1.792.59 2.714.16.706.053.87-.644.87-2.358-.055-4.716-.055-7.128-.055ZM52.205 4.289V9.5h4.931c.376 0 .59 0 .697.543.107.922.429 1.845.59 2.768.16.815 0 1.032-.858 1.032h-5.36v6.243c.161 0 .322.054.536.054 1.608 0 3.216.055 4.824 0 .536-.054 1.019.38 1.662.055.268-.163.697.325.643.705-.054.815.322 1.575.482 2.335.161.868.108 1.031-.75 1.031H48.346c-.911 0-.911 0-.911-.923 0-5.863-.054-11.726 0-17.535 0-1.683-.268-3.257-.536-4.886-.107-.597.054-.814.59-.869H58.53c.536 0 .804.109.858.76.107.923.375 1.792.59 2.715.16.706.053.868-.644.868-2.358-.108-4.717-.108-7.129-.108ZM90.368 30.022H85.49v19.924h-4.77v-19.87H77.02c-.482 0-.75 0-.857-.706-.107-1.194-.429-2.334-.697-3.583.322 0 .482-.054.697-.054H88.76c.535 0 .75.108.857.76.16 1.14.429 2.28.75 3.529ZM40.36 49.946h-4.77v-.706c0-5.972-.054-11.998 0-17.97 0-1.52-.322-2.985-.59-4.451-.053-.217-.054-.435-.107-.598-.215-.38.053-.434.321-.434h4.128c.107 0 .321.217.375.38.321 1.683.697 3.312.697 5.05-.054 5.97 0 11.997 0 17.969-.054.271-.054.488-.054.76Z"/></g><defs><clipPath id="a"><path fill="#fff" d="M0 0h105v50H0z"/></clipPath></defs></svg>