<svg width="89" height="83" fill="none" xmlns="http://www.w3.org/2000/svg"><g clip-path="url(#a)"><path d="M87.026 52.28c-.144-.216-.336-.384-.551-.552l-.072-.216v-.023c-.216-.552-.407-1.056-.695-1.583a2.115 2.115 0 0 0-.311-1.847c-.408-.551-1.438-1.894-2.78-2.854a2.287 2.287 0 0 0-.479-1.606c-.766-.912-1.605-1.68-2.491-2.255a12.667 12.667 0 0 0-.456-2.23c-.479-1.679-1.317-3.021-2.42-3.957-.095-.767-.287-1.463-.598-2.086-.48-.983-1.582-1.823-2.516-2.374-.072-.36-.168-.648-.311-.888-.48-.887-1.198-1.534-2.157-1.966.024-.096.048-.192.072-.312.312-1.223.527-2.686.647-4.029v-.144c0-.143-.024-.263-.048-.383-.072-.336-.144-.816-.216-1.271l-.023-.12c.095-.288.167-.576.167-.887 0-.264-.024-.504-.096-.768a2.17 2.17 0 0 0-.191-.503c.024-.072.024-.168.024-.264 0-.624-.216-1.295-.623-1.99-.048-.097-.12-.169-.192-.24a3.906 3.906 0 0 0-.958-.744c-1.03-2.446-2.923-5.228-5.08-6.379 0-.288-.095-.552-.24-.791.025-.168.025-.336.025-.504 0-.72-.096-1.415-.24-2.062a1.45 1.45 0 0 0-.694-.936c-.48-1.75-1.582-3.021-3.307-3.74-.862-.36-2.084-.672-3.019-.744-.886-.072-1.485-.024-1.605-.024-.55.024-1.03.288-1.317.743-.84.192-1.99.576-3.043 1.583-1.773 1.415-2.78 2.974-3.522 5.396a13.238 13.238 0 0 0-.551 3.669c0 .456.024.887.096 1.319.047.312.167.6.359.84.168 1.03.455 2.134.815 3.045-.72-.096-1.414.24-1.75.887l-.335.672-.024.048c-.383.935-.455 1.678-.311 2.686.215 1.462.886 2.613 1.964 3.405a7.133 7.133 0 0 0-1.461.096 3.771 3.771 0 0 0-.431-.384c-.288-.168-.839-.24-2.348-.456-.431-.071-.863-.12-1.27-.191-1.342-.216-15.238-2.47-15.358-2.494l-.095-.024h-.096c-.048 0-.24.024-.336.048-.24.047-11.955 2.374-18.136 3.597-.575.12-1.677.767-1.677 2.278l-.024 36.5-.647.047h-.048c-2.085.336-2.995.84-3.187.936C1.374 66.045.44 67.076.2 68.275v.024c0 .048-.216 1.343.719 2.398.814.912 2.683 1.799 5.534 1.56a153.97 153.97 0 0 0 2.875-.265C15.845 79.38 25.117 82.376 25.5 82.496l1.102.36 1.102-.312c.264-.072 1.582-.456 3.474-1.199a62.077 62.077 0 0 0 5.703-.551c.167-.024 4.408-.552 9.607-2.279 8.553-2.853 12.842-6.738 14.974-9.568.24-.072.48-.168.695-.312a4.909 4.909 0 0 0 2.204-.048c.599-.12 1.102-.36 1.51-.767 1.293.288 2.683-.048 3.114-.168.383-.12.743-.336 1.006-.624.408-.455.695-1.127.839-1.942.647-.072 1.39-.144 2.108-.216 1.318-.144 2.707-.264 3.714-.432l.575-.096v-.047c.12-.025.215-.073.287-.097.336-.12.767-.263 1.222-.407.527-.192 1.63-.576 1.821-.624.072-.024.12-.024.192-.048.503.12 1.03.072 1.485-.144.91-.431 1.94-.935 2.9-1.678.143-.12.287-.24.382-.384.408-.12.791-.384 1.055-.72.55-.695.862-1.582 1.126-2.373v-.025c.048-.143.096-.287.144-.407.047-.144.095-.264.12-.408.31-1.726 0-3.333-.935-4.7Z" fill="#fff"/><path d="M55.616 1.56c-.455 0-.79.287-.958.67-1.006.193-2.06.553-3.067 1.488-1.677 1.319-2.635 2.806-3.33 5.108a12.022 12.022 0 0 0-.527 3.477c0 .432.024.84.072 1.247.024.264.144.504.335.672.144 1.103.48 2.326.863 3.285-.048.312-.096.6-.144.911a1.066 1.066 0 0 0-.503-.287 1.065 1.065 0 0 0-1.222.551l-.335.672c-.336.839-.408 1.486-.264 2.374.24 1.63 1.078 2.781 2.492 3.477-.12.144-.216.312-.288.504-.024.048-.024.096-.048.143h-.167a9.283 9.283 0 0 0-.839-.047c-.575 0-1.102.072-1.462.167-.143-.192-.359-.431-.503-.527-.287-.168-2.036-.36-3.402-.576-1.365-.216-15.381-2.494-15.381-2.494s-.192.024-.288.048c-.095.024-18.136 3.597-18.136 3.597s-1.198.264-1.198 1.679l-.024 36.547v.504l-1.174.096c-2.156.36-2.995.863-2.995.863-1.03.552-2.108 1.391-2.372 2.614 0 0-.168 1.056.575 1.895.623.695 2.276 1.607 5.031 1.367 1.606-.144 2.588-.24 3.163-.312 6.42 7.434 15.717 10.432 16.124 10.552l.36.12.574.192.576-.168.359-.096c.24-.072 1.605-.456 3.498-1.223a63.089 63.089 0 0 0 5.774-.552s17.202-2.086 24.27-11.775c.407-.096.719-.263.958-.431.671.192 1.414.192 2.18.024a2.125 2.125 0 0 0 1.414-.864c1.27.432 2.851.024 3.162-.048.288-.072.528-.24.743-.455.407-.456.671-1.151.767-2.087.767-.096 1.677-.192 2.587-.288 1.318-.143 2.684-.263 3.666-.431.288-.048.551-.144.79-.216.336-.12.767-.264 1.199-.408.647-.24 1.653-.575 1.868-.623.12-.024.216-.072.312-.12.407.168.862.144 1.246-.048.886-.432 1.892-.911 2.803-1.63.168-.12.287-.264.383-.432.384-.072.719-.264.959-.576.479-.623.79-1.463 1.03-2.206.048-.168.12-.312.168-.456a.664.664 0 0 0 .071-.312c.264-1.534-.024-2.997-.838-4.244a1.51 1.51 0 0 0-.551-.48s-.024 0-.024-.024c-.024-.12-.048-.264-.096-.384v-.024c-.24-.623-.455-1.175-.79-1.75a1.524 1.524 0 0 0-.144-1.559c-.432-.6-1.558-2.038-2.971-2.95a1.58 1.58 0 0 0-.264-1.486c-.79-.96-1.653-1.727-2.587-2.303a14.416 14.416 0 0 0-.456-2.422c-.479-1.655-1.317-2.974-2.395-3.813-.072-.791-.24-1.487-.575-2.134-.456-.935-1.654-1.75-2.516-2.254-.072-.408-.168-.72-.311-.984-.576-1.055-1.486-1.606-2.372-1.894.095-.264.167-.528.24-.792.287-1.199.526-2.614.622-3.933v-.095c0-.096 0-.168-.024-.264-.072-.36-.168-.84-.24-1.32l-.047-.287c.12-.24.167-.528.167-.815 0-.192-.024-.408-.071-.6a2.267 2.267 0 0 0-.24-.551c.024-.12.048-.24.048-.36 0-.504-.168-1.08-.527-1.679a.73.73 0 0 0-.12-.168 3.26 3.26 0 0 0-.982-.72c-.983-2.397-3.02-5.467-5.223-6.45 0-.096.024-.168.024-.168v-.144a.985.985 0 0 0-.264-.671c.024-.216.048-.432.048-.672 0-.647-.072-1.319-.24-1.918-.096-.336-.335-.552-.623-.696-.383-1.726-1.365-2.901-3.042-3.597-.79-.336-1.94-.623-2.851-.695-.91.072-1.51.143-1.51.143Z" fill="#082057"/><path d="m29.166 35.805-.767-3.286a.28.28 0 0 0-.263-.215h-9.871a3.846 3.846 0 0 0-3.834 3.837V52.04a3.846 3.846 0 0 0 3.834 3.837h5.726V52.04h-4.217a.635.635 0 0 1-.623-.623V36.74c0-.336.288-.623.623-.623h9.128a.357.357 0 0 0 .216-.096c.048-.048.072-.144.048-.216Z" fill="#fff"/><path d="M22.745 45.445c.024.12.144.192.264.192h2.035v17.65l4.84-.407V45.349l-.766-3.333a.28.28 0 0 0-.264-.216H22.17a.356.356 0 0 0-.216.096.279.279 0 0 0-.048.24l.839 3.31ZM34.605 62.208l.167.24 5.032-.432-.528-.791-.383-.576-4.863-7.362-.6-.911 6.062-6.93a.23.23 0 0 0 .048-.217l-.743-3.357a.233.233 0 0 0-.24-.192h-4.144a.218.218 0 0 0-.192.096c-.048.048-.048.12-.048.192l.456 2.086-3.642 4.221v8.465l3.21 4.868.408.6Z" fill="#fff"/><path d="m51.807 70.697 2.683-.072.958-2.95s.767.48 1.318.337c.216 0 .455-.192.455-.192.24.12.384.168.671.24.503.095 1.342-.073 1.342-.073-2.156 2.758-6.469 5.276-6.469 5.276-4.169 2.279-9.008 4.293-13.68 5.156 0 0 7.81-2.614 12.722-7.722Z" fill="#B6B8B9"/><path d="m53.628 57.34-1.438.024.983 5.108c.287-.96.095-1.415.694-1.99.336-.312.575-.432 1.007-.552l-1.246-2.59Z" fill="#fff"/><path d="M53.7 62.616c.143-.432.239-.72.239-.935 0-.216.048-.744.599-1.128.551-.407 1.677-.263 1.677-.263s-.48.455-.67 1.39c0 0-1.99 1.775-1.295 4.221.024-.024-1.197-1.295-.55-3.285ZM58.803 60.17s-1.102 2.542-.91 4.844l1.485.432s-.743-2.806 1.892-5.06c0 0 .192-.48.336-.648.144-.216-1.845-.575-2.803.432ZM58.204 60.985s.12-.575.311-.84c0 0-.503-.455-1.15-.359-.647.096-.934.575-1.174 1.08-.24.503-.67 1.654-.767 2.517-.095.887 0 1.559.623 2.182l.575.048s-.838-2.086 1.222-4.148c0 0 .072-.192.36-.48Z" fill="#fff"/><path d="M71.932 53.815c-.934-.552-1.39-.456-1.39-.456l-6.636 4.365c2.132-.048 3.402.647 3.402.647-4.05-.576-5.39.096-5.39.096s2.515.288 4.48.911c0 0 1.677-.288 2.204.168 0 0 .43.336.503 1.415v.024a2.9 2.9 0 0 1 .719.791h.023c3.762.984 6.398-.743 6.398-.743.24-3.597-3.379-6.643-4.313-7.218Z" fill="#B6B8B9"/><path d="M65.32 61.584c-.312 0-.743-.167-.743-.167-.048-.6-.432-.96-.432-.96-.335 2.23-1.94 4.7-1.94 4.7-.288.12-1.198 0-1.198 0l-.48-.839c.144-2.901 1.51-4.7 1.51-4.7 2.444-.887 3.905-.072 3.905-.072s-.479.72-.455 1.727v.24c0-.024-.024.072-.168.072Z" fill="#fff"/><path d="M68.218 64.774c-.311-.168-.359-1.103-.359-1.103-.072-.648-.599-1.103-1.198-1.055-.575.072-1.006.647-.91 1.295 0 0 .167 1.079.67 1.87 0 0 .959.384 2.277-.072 0 0 .503-.383.335-1.343 0-.024-.48.576-.815.408Z" fill="#B6B8B9"/><path d="M68.075 60.601c-.36 1.104-.336 2.303-.336 2.303 0-.96-.48-1.727-1.054-1.727-.431 0-.815.432-.982 1.055 0 0 .191-1.75.24-1.942.047-.192.239-.432.574-.504.336-.072 1.15-.192 1.677.024.527.216.527.743.527.935 0 0-.335-.24-.55-.287l-.097.143Z" fill="#fff"/><path d="M68.386 64.318c-.12.048-.12-.24-.144-.431a1.926 1.926 0 0 0-.12-.504c-.071-.192-.047-.384-.047-.384.407-.959 1.461-.263 1.461-.263-.335-1.32-1.365-1.055-1.365-1.223 0-.168.167-.648.167-.648s1.126.456 1.366 1.439c.263.983-.24 1.559-1.318 2.014Z" fill="#B6B8B9"/><path d="m51.95 61.896.264 2.326L6.19 66.117l45.76-4.22Z" fill="#fff"/><path d="m61.294 45.397.024-1.031c-1.94-1.439-8.241-4.964-8.241-4.964-.24.192-.695.36-.695.36s5.726 3.165 8.912 5.635ZM49.794 58.083c-.814.048-2.611-.096-2.611-.096v.744s.599.048 1.15.072c.599-.24 1.054-.504 1.461-.72ZM55.76 51.153c-.455.144-1.366.288-2.252.407l-.264-.575c-.215.12-.43.216-.647.312l.168.36c-.79.095-1.413.167-1.413.167-1.797.672-3.21.888-3.21.888l1.005 2.278c-1.173 0-1.94-.096-1.94-.096l-.024.743s.862.096 2.276.072l.886 2.015c.264-.168.48-.312.623-.408l-.718-1.63c.838-.025 1.797-.12 2.85-.265.24-.263.48-.551.695-.839-1.365.264-2.73.36-3.88.384l-1.031-2.326c1.246.024 2.851-.12 4.145-.288l.91 2.038c.192-.24.36-.48.503-.671l-.647-1.463c.959-.144 1.63-.264 1.63-.264.287-.527.335-.84.335-.84ZM66.996 54.126a8.78 8.78 0 0 1-1.102.072c.575-.527 1.079-1.007 1.39-1.295.072-.36.12-.743.12-1.127l-.048.048s-1.318 1.247-2.516 2.35a9.418 9.418 0 0 1-1.294-.143c-.023.24-.047.48-.095.719.143.024.36.048.647.096-.312.288-.575.527-.767.72-.072.407-.144.79-.24 1.222.408-.383 1.222-1.103 2.013-1.846.503.024 1.054.024 1.653-.024.048-.192.144-.456.24-.792Z" fill="#B6B8B9"/><path d="M67.02 51.08c-1.293.169-2.947-.071-2.947-.071l1.462-1.487s-.24-.24-.575-.456l-1.198 1.2c0 .455 0 .935-.024 1.438.67.096 2.156.264 3.69.072v-.168l-.408-.527ZM61.941 18.059h.168c.934-.024 1.725.191 2.515.431.144.048.288.096.456.12.838.216 1.7.264 2.683.12a2.87 2.87 0 0 0 .839-.264c0-.312-.216-.935-.216-.935-2.204-6.379-5.558-6.57-5.558-6.57s-.144.239-.504.407c0 0 .24 1.199-1.245 1.367 0 0 1.102 2.47.862 5.132v.192Z" fill="#B6B8B9"/><path d="M57.437 19.45c.695-.072 1.557-.288 2.684-.624a11.347 11.347 0 0 1 2.204-.408c.79 0 1.485.192 2.204.408.144.048.287.096.455.12a6.565 6.565 0 0 0 1.677.216c.36 0 .767-.024 1.174-.096.48-.072.91-.264 1.198-.456-.144-.72-.335-1.151-.335-1.151.263.024.695.216 1.03 1.007 0 0 .24.576.024 1.127 0 0-.336-.335-.959.336 0 0-.383.288-.982.432-.599.144-1.869-.024-2.923-.504s-2.348-1.103-4.792-.791c0 0-1.078.192-1.772.384a3.076 3.076 0 0 1-1.486.024c-.024-.024.383 0 .6-.024ZM69.608 22.975c-6.78 5.923-7.14 5.803-7.14 5.803l-.024-1.822c4.385-2.422 6.445-4.988 6.445-4.988-4.288 1.774-6.469 2.326-6.469 2.326-1.916 0-5.99-1.056-5.99-1.056 3.355.384 5.847-.095 5.847-.095l-.144-2.35s.167-.408.79-.312c.647.072.623.311 1.821.383 1.198.072 3.762-.24 3.762-.24s-.048.888.67 1.128l.432 1.223Z" fill="#B6B8B9"/><path d="M69.895 23.287c-1.7 1.942-7.283 6.067-7.283 6.067-7.188-1.967-10.638-5.684-10.638-5.684l.216 1.055c5.151 4.15 10.422 5.348 10.422 5.348 3.762-2.662 7.092-5.947 7.092-5.947-.288 7.674-8.098 12.182-8.098 12.182-8.386-2.326-9.608-8.92-9.608-8.92-.598-1.943-.766-3.214-.79-4.054-.024-.839.479-2.062.647-2.95.191-.887.814-1.294 1.317-1.126.504.168 1.03.575 2.803 1.319 1.75.719 3.14.072 4.217-.456 1.078-.528 2.157-.576 2.157-.576-1.318-.335-2.42.192-3.259.456-.838.264-1.677.408-2.707.144-1.03-.264-2.156-1.08-3.187-1.415-1.03-.336-1.629.36-1.916 1.055-.288.696-.815 2.878-.815 2.878-1.342-8.465 4.36-11.127 4.36-11.127-.12-.072-.167-.12-.167-.12-6.421 2.782-4.744 11.775-4.744 11.775.311 1.534.743 1.966.743 1.966 1.294 9.832 10.829 11.87 10.829 11.87 9.655-6.738 8.72-13.669 8.72-13.669l-.43-1.99s0 .12-.096.24l.215 1.678ZM80.868 49.018a12.27 12.27 0 0 1 3.115.312s-2.372-3.31-4.24-3.093c-.528.072-1.055.215-1.558.36 0 0-2.252.743-4.672 2.445 0 0 1.366-.048 3.57.552 0 .024 1.462-.528 3.785-.576ZM82.833 51.68c.767.192 1.414.408 1.917.648-.288-.744-.48-1.271-.887-1.847a7.873 7.873 0 0 0-1.677-.455s-2.827-.576-6.708.36l1.82.503s3.163.192 5.535.791ZM84.15 57.172c.456.576.84 1.175 1.079 1.75.168-.215.311-.503.455-.839.695-1.51.6-2.254.6-2.254 0-.815-.217-1.583-.672-2.278-.383-.192-.79-.384-1.222-.576 0 0-3.498-1.439-8.6-2.062l1.197.935c-.024 0 4.504 2.039 7.164 5.324Z" fill="#B6B8B9"/><path d="M80.964 59.282c.216.432.384.864.504 1.223 0 0 1.868-.263 2.683-.863-.192-.671-.575-1.367-1.078-2.062 0 0-2.78-3.885-7.475-5.972l1.054 1.679c-.024.024 3.402 3.453 4.312 5.995ZM78.52 59.33s.192 1.008.216 1.2c.336-.072.863-.12 1.533-.025-.071-.36-.167-.695-.263-1.055 0 0-1.318-4.053-4.912-6.882l.647 1.63c-.024 0 1.582 1.032 2.78 5.132ZM75.238 42.687c1.007-.695 2.06-1.079 2.06-1.079-.862-.6-1.796-1.127-2.85-1.343-.168.48-.551 1.2-.767 1.631 0 0-1.677 3.046-2.156 3.837l1.126-.552s1.198-1.558 2.587-2.494ZM77.682 42.567a6.881 6.881 0 0 0-.886.36s-.48.216-1.246.768c0 0-1.869 1.367-3.522 3.357.623.024 1.51.168 2.42.647 1.988-1.534 4.192-2.278 4.192-2.278.743-.24 1.486-.407 2.18-.431-.886-1.056-1.916-1.919-3.138-2.423Z" fill="#B6B8B9"/><path d="M77.179 60.841s.527-.12.91-.192c0 0-.383-4.172-3.498-6.69l.575 1.774c.024 0 1.989 1.967 2.013 5.108Z" fill="#B6B8B9"/><path d="m58.994 58.635 3.187-.935c.503-1.919.67-3.046.815-5.013.12-1.726.12-2.733-.049-4.46-.79-.192-1.365-.288-2.06-.264 0-.024.024 6.451-1.893 10.672ZM69.08 20.169h-.047c-.072.024-.12.048-.144.12-.096.144-.096.384-.048.623.096.36.36.624.551.552.072-.024.12-.048.144-.12.096-.144.096-.384.048-.623-.096-.312-.312-.552-.503-.552Z" fill="#fff"/><path d="M53.029 19.665c-.288-.12-.623.096-.743.432-.144.336 0 .72.263.815.288.12.623-.096.743-.431.12-.336 0-.72-.263-.816ZM62.876 30.457l-.168.12-.216.144c-.12.959-.383 2.973-.742 4.892 1.461-.96 6.468-4.652 7.33-10.24-1.293 1.175-3.665 3.285-6.204 5.084Z" fill="#B6B8B9"/><path d="m62.876 30.457-.168.12-.216.144c-.12.959-.383 2.973-.742 4.892 1.461-.96 6.468-4.652 7.33-10.24-1.293 1.175-3.665 3.285-6.204 5.084ZM60.672 30.409l-.456 4.844-.862-5.396 1.318.552ZM57.341 28.898l.815 4.988-2.252-5.78 1.437.792Z" fill="#B6B8B9"/><path d="M62.444 26.38s-3.57-.144-8.936-3.837c.215.24.599.6 1.15 1.007.215.144.407.288.599.408h.024c.048.024.096.072.144.096 3.665 2.35 7.02 2.878 7.02 2.878 4.384-2.422 6.444-4.988 6.444-4.988s-3.21 2.877-6.445 4.436Z" fill="#fff"/><path d="m63.762 30.265-.719 4.173 1.845-5.036c-.36.287-.743.6-1.126.863Z" fill="#082057"/><path fill-rule="evenodd" clip-rule="evenodd" d="m65.966 28.562-1.054 4.15 1.725-4.725c-.216.192-.431.384-.67.575Z" fill="#082057"/><path d="M51.903 33.886a2.766 2.766 0 0 0-2.228.192c1.7.648 2.635 2.662 2.06 4.532-.072.24-.168.456-.288.672.983-.168 1.87-.84 2.205-1.87.503-1.44-.288-3.022-1.75-3.526ZM11.628 64.414l-.072-34.677 15.238-3.38 16.244 2.853v32.542l2.516-.191V27.099L26.722 23.79 9.041 27.723l.096 36.907 2.491-.216Z" fill="#B6B8B9"/><path d="M50.992 34.198c.6-.024.983.192 1.438.575a2.403 2.403 0 0 1 .335 3.31s.383-2.614-1.773-3.885Z" fill="#fff"/><path d="M1.877 68.66c1.006-2.639 4.289-2.543 4.289-2.543l46.048-1.895.048.36L1.877 68.66ZM69.704 34.222a2.506 2.506 0 0 0-2.492 2.494 2.506 2.506 0 0 0 2.492 2.494 2.506 2.506 0 0 0 2.492-2.494 2.49 2.49 0 0 0-2.492-2.494Z" fill="#B6B8B9"/><path d="M68.578 34.965c-.934.624-1.246 1.775-.719 2.782.527 1.055 1.557 1.655 2.851.96-.742-.096-1.222-.336-1.7-.912-.744-.84-.887-1.798-.432-2.83Z" fill="#082057"/><path d="M69.584 34.534c.575-.048.934.144 1.366.503.958.768 1.15 2.11.43 3.118.049-.767-.023-1.247-.358-1.943-.36-.791-.887-1.007-1.438-1.678Z" fill="#fff"/><path fill-rule="evenodd" clip-rule="evenodd" d="m61.438 39.93.024-.912s-5.055-3.525-7.523-4.436c0 0 .383.503.48.863-.025 0 4.072 2.134 7.019 4.484ZM64.433 35.325c-1.485 1.463-2.947 2.182-2.947 2.182l-.024 1.08s4.528-3.094 5.798-3.334c0 0 .288-.407.551-.575 0 0 .671-1.08.24-2.23 0 0-1.51 1.75-2.468 2.277-.958.504-1.15.6-1.15.6Z" fill="#B6B8B9"/><path fill-rule="evenodd" clip-rule="evenodd" d="M72.555 32.471a4.62 4.62 0 0 1-.48 1.44c3.57 2.493.791 8.8.791 8.8 1.366-2.182 2.06-5.587 2.06-5.587.695-4.125-2.371-4.653-2.371-4.653ZM70.47 33.67c.336.072.647.216.91.408.145-.312.863-1.799.624-2.662-.527-1.966-2.803-1.99-2.803-1.99s-.048.312-.192.527c.024-.024 3.163.648 1.462 3.717Z" fill="#fff"/><path d="M66.613 37.675s-3.69 2.207-5.223 3.91l-.048 1.846c1.605-1.367 6.038-4.485 6.038-4.485a2.757 2.757 0 0 1-.767-1.27Z" fill="#fff"/><path d="M70.59 39.834c-.287.072-.575.12-.886.12-.12 0-.24 0-.383-.025 0 0-5.75 3.694-7.428 6.14 0 0-3.474.791-5.462 1.367-1.989.551-6.253 1.15-9.2-1.607v1.918c1.605 1.751 6.804.912 9.463.096 2.708-.839 4.744-.911 4.744-.911 4.456-.312 7.164 2.95 7.164 2.95l.263.264c3.474-4.677 1.725-10.312 1.725-10.312Z" fill="#B6B8B9"/><path d="M68.003 39.474s-2.755 1.51-6.685 4.892l-.024 1.031c1.893-1.894 7.212-5.66 7.212-5.66-.168-.071-.335-.167-.503-.263ZM76.867 40.72c.216.145.456.313.72.528v-.023c-.193-3.55-2.133-4.341-2.133-4.341s-.024.48-.144.911c0-.024 1.102.576 1.557 2.926Z" fill="#fff"/><path d="M57.341 7.41c-2.587-2.23-5.151-1.15-5.151-1.15.527.12.695.24.695.24-4.265 2.206-2.827 7.626-2.827 7.626l-.36-.6a5.932 5.932 0 0 0 .36 1.847s-.24.527-.288.791c0 0-.647-1.775-.575-3.142l-.24.384c-.383-4.988 1.965-7.41 1.965-7.41 3.139-3.381 6.086-.552 6.086-.552.048-.695-.408-1.247-.408-1.247 4.864 1.247 4.145 7.17 4.145 7.17s-.695-.311-1.341-1.534c-.623-1.223-1.318-2.494-2.157-2.998l.096.576ZM49.315 23.287l-.024-.024c-1.797-.936-1.342-3.55-1.342-3.55s-1.437 2.83 1.558 4.485c-.096-.336-.144-.648-.192-.912Z" fill="#B6B8B9"/><path d="M62.971 9.857c-.143.216-.43.24-.43.24.598-2.902 0-3.214 0-3.214-.025.432-.336.552-.336.552-.24-5.42-6.613-4.748-6.613-4.748s5.966-.288 6.038 6.33c0 0 .455-.191.55-.79 0 0 .312 1.582-.55 3.165 0-.024 1.413-.264 1.341-1.535ZM79.742 46.26c-.527.073-1.054.216-1.557.36.67.456 1.869 1.343 2.683 2.398a12.265 12.265 0 0 1 3.115.312s-2.372-3.285-4.24-3.07ZM83.863 50.481a7.873 7.873 0 0 0-1.677-.455c.24.527.551 1.223.671 1.63.767.192 1.414.408 1.917.648-.312-.72-.503-1.247-.91-1.823ZM78.64 45.421c.743-.24 1.486-.407 2.18-.431-.862-1.056-1.916-1.919-3.114-2.423a6.88 6.88 0 0 0-.886.36s-.48.216-1.246.768c.695.191 1.844.647 3.066 1.726ZM84.15 59.642c-.19-.671-.574-1.367-1.077-2.062-.527.575-1.366 1.39-2.109 1.702.216.432.384.864.504 1.223-.025 0 1.868-.24 2.683-.863ZM74.448 40.241s0 .024 0 0c-.192.48-.551 1.2-.791 1.655.455.072 1.557.791 1.557.791 1.007-.695 2.06-1.079 2.06-1.079-.838-.623-1.772-1.127-2.826-1.367ZM85.684 58.06c-.144.311-.287.623-.455.839-.24-.576-.623-1.151-1.078-1.751.383-1.487.287-3.381.24-4.173.43.168.838.36 1.221.576.456.695.671 1.463.671 2.278-.024-.024.096.743-.599 2.23ZM76.22 59.906c.048.36.072.743.048 1.127 0 0-2.635 1.727-6.397.743h-.023a2.899 2.899 0 0 0-.72-.791v-.024a2.958 2.958 0 0 0-.239-1.031s1.222.671 3.57.456c2.372-.192 3.761-.48 3.761-.48ZM79.048 59.546c-.168-.024-.336-.024-.504-.024.048.312.168.864.168 1.007.336-.072.863-.12 1.534-.024a15.355 15.355 0 0 0-.24-1.007 4.073 4.073 0 0 1-.958.048ZM77.083 59.642c.072.384.096.767.096 1.2 0 0 .527-.12.91-.193 0 0-.048-.431-.191-1.103-.312 0-.6.048-.815.096ZM61.486 37.028c9.655-6.739 8.721-13.67 8.721-13.67l-.431-1.99s0 .12-.096.24l.215 1.654c-1.7 1.943-7.283 6.068-7.283 6.068v.72c3.762-2.663 7.092-5.948 7.092-5.948-.288 7.674-8.098 12.182-8.098 12.182l-.12.744ZM62.325 11.847c.071-.263.023-.503.023-.503.336-.168.504-.408.504-.408s3.354.192 5.558 6.571c0 0 .216.623.216.935-.24.12-.528.24-.839.264-.36.048-.67.072-1.006.072-.024.024-.767-4.125-4.457-6.93Z" fill="#fff"/><path d="m42.271 67.964-12.53 1.27 12.075-.647c-4.289 5.66-13.225 8.705-14.998 9.257l-.12.048-.12-.048c-1.533-.552-6.948-2.686-11.572-6.883l-.263-.24-2.755.288c5.99 6.283 13.967 8.873 14.327 8.993l.36.12.358-.096c.575-.168 13.561-3.909 17.874-12.326l-2.636.264Z" fill="#B6B8B9"/><path d="M41.816 68.587c-4.289 5.66-13.225 8.705-14.998 9.257 9.799-1.895 14.782-7.386 16.292-9.329l-1.294.072Z" fill="#fff"/><path d="m48.716 67.652 3.163-.312-.336 2.806-.167-2.398-2.66-.096Z" fill="#B6B8B9"/><path d="M67.835 40.96c.886-.623 1.51-1.007 1.51-1.007.12.024.239.024.383.024.311 0 .599-.047.886-.12 0 0 1.75 5.636-1.725 10.264-.096-.095-.191-.167-.263-.263-.024 0 .575-5.66-.791-8.897ZM44.116 29.498c.144-.192.216-.432.216-.672l2.683-2.038-2.97 1.367-.025-.024a.902.902 0 0 0-.838-.192l-1.989-2.614 1.342 2.902-15.717-1.895 15.549 2.734c0 .024 0 .072.024.096l-2.611 1.99 3.018-1.367c.096.072.192.096.312.144v31.847l1.006-.096V30.65l1.51 1.99-1.51-3.141Z" fill="#fff"/></g><defs><clipPath id="a"><path fill="#fff" transform="translate(.152 .936)" d="M0 0h87.928v81.896H0z"/></clipPath></defs></svg>